<?xml version="1.0" standalone="no"?>
<!DOCTYPE svg PUBLIC "-//W3C//DTD SVG 1.1//EN" "http://www.w3.org/Graphics/SVG/1.1/DTD/svg11.dtd" >
<svg xmlns="http://www.w3.org/2000/svg" xmlns:xlink="http://www.w3.org/1999/xlink" version="1.1">
<metadata></metadata>
<defs>
<font id="fira_sansextralight" horiz-adv-x="1208" >
<font-face units-per-em="2048" ascent="1638" descent="-410" />
<missing-glyph horiz-adv-x="581" />
<glyph horiz-adv-x="0" />
<glyph horiz-adv-x="682" />
<glyph unicode="&#xd;" horiz-adv-x="681" />
<glyph unicode=" "  horiz-adv-x="581" />
<glyph unicode="&#x09;" horiz-adv-x="581" />
<glyph unicode="&#xa0;" horiz-adv-x="581" />
<glyph unicode="!" horiz-adv-x="491" d="M164 59.5q0 34.5 23.5 58t58.5 23.5q37 0 59.5 -23.5t22.5 -58t-22.5 -58.5t-59.5 -24q-35 0 -58.5 24t-23.5 58.5zM195 1401h98l-4 -963h-88z" />
<glyph unicode="&#x22;" horiz-adv-x="714" d="M154 1401h100l-14 -508h-72zM461 1401h100l-14 -508h-72z" />
<glyph unicode="#" horiz-adv-x="1019" d="M31 381v78h164l61 471h-150v80h160l47 350h88l-47 -350h396l47 350h88l-47 -350h151v-80h-162l-61 -471h147v-78h-157l-51 -381h-89l52 381h-396l-51 -381h-88l51 381h-153zM283 459h395l61 471h-395z" />
<glyph unicode="$" horiz-adv-x="1073" d="M90 145l57 62q156 -145 365 -146q154 0 249 82t95 224q0 127 -71.5 194.5t-260.5 124.5q-209 66 -295 146.5t-86 218.5q0 135 96.5 226t254.5 99v297h84v-297q182 -10 333 -145l-59 -62q-135 127 -322 127q-131 0 -210.5 -66.5t-79.5 -176.5q0 -109 68.5 -169.5 t252.5 -115.5q207 -66 299 -150.5t92 -248.5q0 -160 -102 -265.5t-272 -121.5v-287h-84v282q-231 6 -404 168z" />
<glyph unicode="%" horiz-adv-x="1599" d="M115 1052.5q0 149.5 81 239.5t216 90q133 0 215 -89t82 -236q0 -152 -80 -242t-217 -90q-133 0 -215 89t-82 238.5zM205 1053q0 -111 51 -182.5t156 -71.5q106 0 156 71.5t50 186.5q0 111 -51 182.5t-155 71.5q-106 0 -156.5 -72t-50.5 -186zM299 2l948 1434l72 -47 l-948 -1432zM891 305q0 150 81 240t216 90q133 0 215 -89t82 -237q0 -152 -80 -242t-217 -90q-131 0 -214 90.5t-83 237.5zM981 305q0 -111 51 -182.5t156 -71.5q106 0 156.5 72t50.5 186q0 111 -50.5 182.5t-156.5 71.5q-104 0 -155.5 -72.5t-51.5 -185.5z" />
<glyph unicode="&#x26;" horiz-adv-x="1472" d="M193 348q0 133 73.5 227.5t222.5 180.5q-115 106 -161.5 181t-46.5 175q0 133 92.5 221t242.5 88q145 0 236.5 -84t91.5 -215q0 -117 -76.5 -201.5t-244.5 -177.5l440 -411q92 188 139 405l88 -26q-59 -248 -170 -437l264 -241l-73 -56l-240 224q-178 -223 -461 -224 q-180 0 -298.5 102.5t-118.5 268.5zM289 350q0 -129 93 -210t234 -81q240 0 396 199l-465 444q-129 -78 -193.5 -160.5t-64.5 -191.5zM375 1114q0 -80 37 -142.5t153 -172.5q150 80 217.5 153.5t67.5 165.5q0 106 -66 167t-168 61q-109 0 -175 -67t-66 -165z" />
<glyph unicode="'" horiz-adv-x="407" d="M154 1401h100l-14 -508h-72z" />
<glyph unicode="(" horiz-adv-x="663" d="M121 717q0 170 25.5 310t84 265t108.5 206t144 212l60 -41q-111 -164 -170.5 -272.5t-107.5 -287.5t-48 -392q0 -211 48 -391.5t107.5 -290t170.5 -271.5l-60 -40q-94 131 -144 211.5t-108.5 205.5t-84 265.5t-25.5 310.5z" />
<glyph unicode=")" horiz-adv-x="663" d="M121 -236q111 162 170 271.5t107 290t48 391.5q0 213 -48 392t-107.5 287.5t-169.5 272.5l59 41q94 -131 144.5 -212t109 -206t84 -265t25.5 -310t-25.5 -310.5t-84 -265.5t-109 -205.5t-144.5 -211.5z" />
<glyph unicode="*" horiz-adv-x="890" d="M80 1206l26 84l304 -112l-11 327h93l-11 -323l301 110l29 -86l-311 -86l200 -256l-75 -55l-179 268l-180 -268l-76 55l201 254z" />
<glyph unicode="+" horiz-adv-x="1005" d="M147 635v84h310v313h92v-313h309v-84h-309v-313h-92v313h-310z" />
<glyph unicode="," horiz-adv-x="399" d="M78 -299l82 289q-43 20 -43 69q0 35 23.5 58.5t58.5 23.5q37 0 60.5 -23.5t23.5 -58.5q0 -31 -29 -100l-107 -258h-69z" />
<glyph unicode="-" horiz-adv-x="819" d="M145 600v82h529v-82h-529z" />
<glyph unicode="." horiz-adv-x="399" d="M117 59.5q0 34.5 23.5 58t58.5 23.5q37 0 60.5 -23.5t23.5 -58t-23.5 -58.5t-60.5 -24q-35 0 -58.5 24t-23.5 58.5z" />
<glyph unicode="/" horiz-adv-x="1064" d="M254 -178l475 1818l82 -22l-475 -1819z" />
<glyph unicode="0" horiz-adv-x="1120" d="M143 682q0 346 106.5 523t311.5 177q203 0 309.5 -178t106.5 -526q0 -346 -106.5 -523.5t-309.5 -177.5t-310.5 179.5t-107.5 525.5zM242 682q0 -623 319 -623q317 0 318 619q-1 625 -318 625q-319 0 -319 -621z" />
<glyph unicode="1" horiz-adv-x="831" d="M94 1110l402 250h79v-1360h-94v1253l-342 -215z" />
<glyph unicode="2" horiz-adv-x="968" d="M74 1192q158 190 385 190q166 0 264 -99t98 -253q0 -84 -22.5 -160.5t-56 -143.5t-123 -175.5t-169 -196.5t-247.5 -268h655l-14 -86h-754v82q406 436 519.5 600t113.5 342q0 127 -72.5 201.5t-195.5 74.5q-184 0 -314 -157z" />
<glyph unicode="3" horiz-adv-x="987" d="M45 152l61 53q133 -143 320 -144q154 0 241 87.5t87 230.5q0 301 -318 301h-86l12 78h66q121 0 206 71.5t85 210.5q0 121 -75 190.5t-200 69.5q-168 0 -309 -129l-51 60q156 151 365 151q168 0 267 -95t99 -243q0 -135 -75.5 -218t-194.5 -101q133 -4 220 -95t87 -249 q0 -178 -115.5 -291t-308.5 -113q-227 0 -383 175z" />
<glyph unicode="4" horiz-adv-x="1050" d="M96 365v73l418 944l80 -32l-397 -904h499l11 410h81v-410h187v-81h-187v-365h-92v365h-600z" />
<glyph unicode="5" horiz-adv-x="987" d="M74 139l63 58q129 -135 318 -136q150 0 237.5 102.5t87.5 276.5q0 168 -81 253t-218 85q-123 0 -237 -69h-76v651h668l-17 -82h-559v-487q106 68 238 67q176 0 278.5 -111.5t102.5 -308.5q0 -205 -116 -333t-310 -128q-221 0 -379 162z" />
<glyph unicode="6" horiz-adv-x="1064" d="M143 604q0 362 129 570t353 208q131 0 243 -77l-43 -68q-96 66 -202 66q-174 0 -274.5 -174.5t-108.5 -456.5q141 211 358 211q156 0 256 -108.5t100 -317.5q0 -219 -109.5 -349.5t-279.5 -130.5q-219 0 -320.5 172.5t-101.5 454.5zM240 565q14 -506 325 -506 q141 0 217 108.5t76 287.5q0 174 -73.5 260t-196.5 86q-215 0 -348 -236z" />
<glyph unicode="7" horiz-adv-x="888" d="M66 1278v82h747v-76l-545 -1298l-90 30l535 1262h-647z" />
<glyph unicode="8" horiz-adv-x="1091" d="M115 348q0 272 303 385q-127 55 -184.5 127t-57.5 187q0 154 108.5 244.5t262 90.5t263.5 -88t110 -247q0 -109 -59.5 -185.5t-190.5 -144.5q162 -66 234.5 -149t72.5 -218q0 -170 -120 -271.5t-314.5 -101.5t-311 102.5t-116.5 268.5zM213 348q0 -137 90 -212t242 -75 q150 0 242 76t92 213q0 125 -68 191.5t-238 132.5l-73 28q-152 -57 -219.5 -141t-67.5 -213zM270 1044q0 -98 54.5 -157.5t195.5 -112.5l76 -29q121 63 174 132t53 165q0 125 -76.5 194t-199.5 69q-121 0 -199 -69t-78 -192z" />
<glyph unicode="9" horiz-adv-x="1054" d="M115 938q0 203 113.5 323.5t291.5 120.5q203 0 303.5 -144t100.5 -411q0 -258 -81 -430t-220.5 -267t-368.5 -167l-25 74q287 90 434.5 244.5t163.5 431.5q-133 -201 -346 -201q-160 0 -263 115.5t-103 310.5zM213 936q0 -162 77 -252t206 -90q190 0 331 215 q0 250 -72.5 372t-232.5 122q-143 0 -226 -96.5t-83 -270.5z" />
<glyph unicode=":" horiz-adv-x="399" d="M117 59.5q0 34.5 23.5 58t58.5 23.5q37 0 60.5 -23.5t23.5 -58t-23.5 -58.5t-60.5 -24q-35 0 -58.5 24t-23.5 58.5zM117 874.5q0 34.5 23.5 58t58.5 23.5q37 0 60.5 -23.5t23.5 -58t-23.5 -58t-60.5 -23.5q-35 0 -58.5 23.5t-23.5 58z" />
<glyph unicode=";" horiz-adv-x="399" d="M78 -299l82 289q-43 20 -43 69q0 35 23.5 58.5t58.5 23.5q37 0 60.5 -23.5t23.5 -58.5q0 -31 -29 -100l-107 -258h-69zM117 874.5q0 34.5 23.5 58t58.5 23.5q37 0 60.5 -23.5t23.5 -58t-23.5 -58t-60.5 -23.5q-35 0 -58.5 23.5t-23.5 58z" />
<glyph unicode="&#x3c;" horiz-adv-x="1015" d="M141 641v82l699 344l34 -80l-643 -305l643 -311l-34 -80z" />
<glyph unicode="=" horiz-adv-x="1005" d="M147 461v86h711v-86h-711zM147 807v86h711v-86h-711z" />
<glyph unicode="&#x3e;" horiz-adv-x="1015" d="M141 371l643 311l-643 305l35 80l698 -344v-82l-698 -350z" />
<glyph unicode="?" horiz-adv-x="907" d="M92 1237q160 184 385 184q156 0 248 -84t92 -207q0 -72 -27.5 -128t-69.5 -89.5t-91 -70.5t-91 -70t-70 -88t-28 -127v-119h-92v127q0 80 27.5 142.5t68.5 98.5t88.5 71.5t88.5 64.5t68.5 76t27.5 108q0 96 -65.5 154.5t-178.5 58.5q-96 0 -169 -36.5t-146 -116.5z M317 59.5q0 34.5 23.5 58t58.5 23.5q37 0 60.5 -23.5t23.5 -58t-23.5 -58.5t-60.5 -24q-35 0 -58.5 24t-23.5 58.5z" />
<glyph unicode="@" horiz-adv-x="2088" d="M184 489q0 397 249 664.5t644 267.5q391 0 609.5 -228t218.5 -562q0 -305 -102.5 -454.5t-258.5 -149.5q-98 0 -161.5 63.5t-82.5 163.5q-100 -223 -307 -223q-147 0 -243.5 117.5t-96.5 326.5q0 252 118 382t304 130q141 0 289 -74v-526q0 -283 180 -283 q117 0 190.5 122t73.5 401q0 309 -193.5 510.5t-537.5 201.5q-354 0 -575 -242.5t-221 -607.5q0 -375 218 -598t576 -223q199 0 385 68l25 -78q-213 -74 -412 -74q-393 0 -641 245t-248 660zM748 475q0 -178 69.5 -271t186.5 -93q98 0 168.5 66.5t101.5 162.5v522 q-94 47 -197 47q-154 0 -241.5 -113.5t-87.5 -320.5z" />
<glyph unicode="A" horiz-adv-x="1150" d="M41 0l473 1401h123l473 -1401h-104l-129 393h-609l-129 -393h-98zM297 479h553l-275 842z" />
<glyph unicode="B" horiz-adv-x="1216" d="M236 0v1401h305q238 0 365.5 -88t127.5 -260q0 -133 -68.5 -211.5t-187.5 -98.5q141 -14 232.5 -101t91.5 -257q0 -188 -128 -286.5t-360 -98.5h-378zM332 84h284q383 0 383 301q0 156 -95 233.5t-253 77.5h-319v-612zM332 778h307q133 0 214 72t81 197q0 270 -383 270 h-219v-539z" />
<glyph unicode="C" horiz-adv-x="1120" d="M143 700q0 346 159 533.5t403 187.5q197 0 350 -125l-54 -65q-135 106 -290 106q-207 0 -336 -156.5t-129 -480.5q0 -311 128 -472.5t331 -161.5q100 0 169.5 29.5t143.5 88.5l53 -65q-156 -141 -371 -142q-248 0 -402.5 189.5t-154.5 533.5z" />
<glyph unicode="D" horiz-adv-x="1286" d="M236 0v1401h272q102 0 187 -15.5t171 -61.5t144.5 -120t95.5 -199.5t37 -291.5q0 -168 -38 -297t-98.5 -206t-144.5 -126t-166 -66.5t-174 -17.5h-286zM332 84h196q512 0 512 629q0 152 -31.5 264.5t-79.5 176t-121 102t-140.5 50t-153.5 11.5h-182v-1233z" />
<glyph unicode="E" horiz-adv-x="1032" d="M236 0v1401h694l-12 -84h-586v-545h506v-84h-506v-604h610v-84h-706z" />
<glyph unicode="F" horiz-adv-x="976" d="M236 0v1401h682l-13 -84h-573v-572h495v-81h-495v-664h-96z" />
<glyph unicode="G" horiz-adv-x="1257" d="M143 707q0 176 48.5 315t130 225t183 130t214.5 44q207 0 373 -133l-60 -63q-140 112 -310 112h-3q-195 0 -334 -156.5t-139 -473.5q0 -319 126 -481.5t347 -162.5q164 0 303 76v525h-283l-12 84h391v-658q-190 -113 -399 -113q-266 0 -421 187.5t-155 542.5z" />
<glyph unicode="H" horiz-adv-x="1366" d="M236 0v1401h96v-621h700v621h98v-1401h-98v694h-700v-694h-96z" />
<glyph unicode="I" horiz-adv-x="567" d="M236 0v1401h96v-1401h-96z" />
<glyph unicode="J" horiz-adv-x="585" d="M33 -160q139 63 185 135t46 215v1211h98v-1217q0 -172 -63 -257t-240 -158z" />
<glyph unicode="K" horiz-adv-x="1091" d="M236 0v1401h96v-1401h-96zM340 752l604 649h113l-598 -645l633 -756h-121z" />
<glyph unicode="L" horiz-adv-x="962" d="M236 0v1401h96v-1311h590l-15 -90h-671z" />
<glyph unicode="M" horiz-adv-x="1572" d="M147 0l138 1401h137l366 -1116l357 1116h139l141 -1401h-94l-69 684q-39 358 -60 623l-368 -1139h-95l-381 1139q-4 -96 -53 -613l-65 -694h-93z" />
<glyph unicode="N" horiz-adv-x="1370" d="M236 0v1401h124l695 -1292q-12 203 -13 409v883h93v-1401h-125l-695 1292q12 -180 13 -458v-834h-92z" />
<glyph unicode="O" horiz-adv-x="1415" d="M143 696q0 340 155 532.5t409 192.5q258 0 411.5 -188.5t153.5 -534.5q0 -340 -152.5 -530.5t-412.5 -190.5q-256 0 -410 188.5t-154 530.5zM246 696q0 -309 125 -471t336 -162q219 0 340.5 161t121.5 474q0 315 -122.5 477t-339.5 162q-213 0 -337 -162.5t-124 -478.5z " />
<glyph unicode="P" horiz-adv-x="1159" d="M236 0v1401h313q510 0 510 -416q0 -223 -138.5 -325.5t-377.5 -102.5h-211v-557h-96zM332 639h213q197 0 304 79t107 265q0 180 -102 257t-305 77h-217v-678z" />
<glyph unicode="Q" horiz-adv-x="1413" d="M143 696q0 340 155 532.5t409 192.5q258 0 411.5 -188.5t153.5 -534.5q0 -542 -367 -661q258 -4 412 -137l-66 -82q-109 94 -229.5 129t-314.5 35q-256 0 -410 186t-154 528zM246 696q0 -309 125 -471t336 -162q219 0 340.5 161t121.5 474q0 315 -122.5 477t-339.5 162 q-213 0 -337 -163t-124 -478z" />
<glyph unicode="R" horiz-adv-x="1196" d="M236 0v1401h329q485 0 486 -375q0 -293 -316 -369l387 -657h-116l-371 641h-303v-641h-96zM332 723h248q368 0 368 301q0 149 -91 221t-298 72h-227v-594z" />
<glyph unicode="S" horiz-adv-x="1099" d="M90 152l57 63q168 -152 379 -152q158 0 256.5 84t98.5 230q0 133 -74 202.5t-268 129.5q-215 66 -304.5 149.5t-89.5 226.5q0 145 111 240.5t289 95.5q127 0 216 -37.5t175 -113.5l-57 -64q-150 131 -332 131q-137 0 -220 -68.5t-83 -181.5q0 -115 71.5 -177t262.5 -119 q211 -63 306 -152.5t95 -259.5q0 -178 -124 -290t-327 -112q-254 0 -438 175z" />
<glyph unicode="T" horiz-adv-x="997" d="M31 1313v88h946l-12 -88h-418v-1313h-96v1313h-420z" />
<glyph unicode="U" horiz-adv-x="1327" d="M215 432v969h96v-961q0 -178 87 -276t265.5 -98t264.5 99t86 275v961h98v-969q0 -207 -113.5 -331t-335 -124t-335 124t-113.5 331z" />
<glyph unicode="V" horiz-adv-x="1112" d="M41 1401h104l412 -1303l412 1303h102l-459 -1401h-112z" />
<glyph unicode="W" horiz-adv-x="1646" d="M66 1401h100l280 -1307l322 1307h111l325 -1307l281 1307h94l-315 -1401h-119l-322 1294l-323 -1294h-117z" />
<glyph unicode="X" horiz-adv-x="1034" d="M25 0l430 754l-387 647h110l334 -582l330 582h106l-379 -641l441 -760h-111l-389 692l-379 -692h-106z" />
<glyph unicode="Y" horiz-adv-x="1050" d="M33 1401h108l389 -762l381 762h107l-443 -850v-551h-96v549z" />
<glyph unicode="Z" horiz-adv-x="1052" d="M76 0v82l768 1233h-690v86h798v-82l-764 -1231h746l-12 -88h-846z" />
<glyph unicode="[" horiz-adv-x="645" d="M186 -227v1872h312v-78h-224v-1717h224v-77h-312z" />
<glyph unicode="\" horiz-adv-x="1064" d="M254 1620l82 20l475 -1818l-84 -23z" />
<glyph unicode="]" horiz-adv-x="645" d="M147 -150h224v1717h-224v78h312v-1872h-312v77z" />
<glyph unicode="^" horiz-adv-x="1079" d="M127 1079l375 621h76l374 -621h-108l-303 520l-303 -520h-111z" />
<glyph unicode="_" horiz-adv-x="1064" d="M68 -150h931v-86h-931v86z" />
<glyph unicode="`" horiz-adv-x="542" d="M61 1499l43 90l377 -205l-30 -57z" />
<glyph unicode="a" horiz-adv-x="1093" d="M123 297q0 164 116.5 253t317.5 89h219v113q0 133 -59.5 194.5t-196.5 61.5q-129 0 -291 -64l-26 76q178 70 325 70q342 0 342 -332v-527q0 -90 21.5 -129t69.5 -57l-23 -68q-70 18 -105.5 61.5t-44.5 127.5q-117 -188 -337 -189q-152 0 -240 87.5t-88 232.5zM223 299 q0 -115 63.5 -178.5t176.5 -63.5q207 0 313 203v305h-205q-168 0 -258 -66.5t-90 -199.5z" />
<glyph unicode="b" horiz-adv-x="1179" d="M225 0v1505l94 13v-603q133 175 328 175q184 0 285.5 -142.5t101.5 -406.5q0 -262 -105.5 -413t-295.5 -151q-193 0 -316 164l-10 -141h-82zM319 236q119 -177 299 -177q152 0 234 123t82 359q0 469 -301 469q-100 0 -173 -48.5t-141 -140.5v-585z" />
<glyph unicode="c" horiz-adv-x="954" d="M137 528q0 258 122 410t325 152q168 0 293 -105l-50 -63q-104 86 -239 86q-160 0 -255 -123t-95 -357q0 -229 94 -348t254 -119q135 0 250 95l49 -64q-127 -115 -299 -115q-205 0 -327 146.5t-122 404.5z" />
<glyph unicode="d" horiz-adv-x="1189" d="M147 530q0 252 112 406t306 154q188 0 305 -150v578l95 -13v-1505h-82l-11 168q-111 -190 -327 -191q-182 0 -290 148.5t-108 404.5zM246 530q2 -226 85 -348.5t226 -122.5q109 0 181.5 53.5t131.5 159.5v568q-115 170 -292 170q-152 0 -243 -127q-89 -124 -89 -343v-10z " />
<glyph unicode="e" horiz-adv-x="1091" d="M137 526q0 258 114 411t306 153q199 0 303.5 -137t104.5 -375q0 -43 -4 -84h-725q10 -219 104 -326t245.5 -107t291.5 109l47 -61q-158 -131 -342 -132q-207 0 -326 145.5t-119 403.5zM236 569h636v39q0 186 -77.5 294t-233.5 108q-139 0 -228 -109.5t-97 -331.5z" />
<glyph unicode="f" horiz-adv-x="647" d="M51 989v80h182v184q0 123 77 194t208 71q127 0 246 -58l-35 -71q-107 47 -207 47q-195 0 -194 -187v-180h290l-14 -80h-276v-989h-95v989h-182z" />
<glyph unicode="g" horiz-adv-x="1017" d="M74 -115h90q2 -121 77.5 -170t272.5 -49q354 0 354 215q0 88 -66.5 137.5t-185.5 49.5h-174q-125 0 -192.5 52t-67.5 132q0 104 117 178q-178 94 -178 303q0 160 104.5 258.5t278.5 98.5h48q164 0 240 12q87 14 173 49l30 -94q-92 -29 -290 -31q180 -86 180 -299 q0 -158 -102.5 -253t-276.5 -95q-78 0 -141 22q-90 -49 -91 -131q0 -118 178 -118h3h176q154 0 244 -73t90 -192q0 -145 -113 -224t-338 -79q-233 0 -336.5 71t-103.5 230zM217 733q0 -133 78 -206.5t209 -73.5q137 0 210.5 71.5t73.5 204.5t-71.5 209t-210.5 76 q-143 0 -216 -76t-73 -205z" />
<glyph unicode="h" horiz-adv-x="1193" d="M225 0v1505l94 13v-637q152 209 367 209q143 0 218 -86t75 -242v-762h-94v750q0 262 -213 262q-195 0 -353 -232v-780h-94z" />
<glyph unicode="i" horiz-adv-x="544" d="M199 1452q0 31 20.5 51.5t53 20.5t53 -20.5t20.5 -51.5t-20.5 -51.5t-53 -20.5t-53 20.5t-20.5 51.5zM225 0v1069h94v-1069h-94z" />
<glyph unicode="j" horiz-adv-x="544" d="M25 -342q115 57 157.5 129t42.5 240v1042h94v-1040q0 -197 -59 -283t-209 -156zM199 1452q0 31 20.5 51.5t53 20.5t53 -20.5t20.5 -51.5t-20.5 -51.5t-53 -20.5t-53 20.5t-20.5 51.5z" />
<glyph unicode="k" horiz-adv-x="983" d="M225 0v1505l94 13v-1518h-94zM332 584l469 485h110l-467 -481l517 -588h-115z" />
<glyph unicode="l" horiz-adv-x="575" d="M215 168v1337l94 13v-1346q0 -111 92 -111q37 0 76 15l27 -72q-58 -27 -113 -27q-82 0 -129 48.5t-47 142.5z" />
<glyph unicode="m" horiz-adv-x="1742" d="M225 0v1069h82l8 -188q137 209 336 209q102 0 171 -57.5t91 -162.5q143 220 342 220q129 0 201 -87.5t72 -240.5v-762h-94v750q0 262 -193 262q-174 0 -317 -232v-780h-95v750q0 262 -192 262q-174 0 -318 -232v-780h-94z" />
<glyph unicode="n" horiz-adv-x="1193" d="M225 0v1069h82l8 -190q152 211 371 211q145 0 219 -85t74 -243v-762h-94v750q0 262 -213 262q-195 0 -353 -232v-780h-94z" />
<glyph unicode="o" horiz-adv-x="1161" d="M137 532q0 260 120 409t325 149q209 0 325.5 -144.5t116.5 -407t-119 -412t-325.5 -149.5t-324.5 148.5t-118 406.5zM236 532q0 -227 90 -350t254 -123q162 0 254 123t92 357q0 229 -90 349t-254 120q-162 0 -254 -122t-92 -354z" />
<glyph unicode="p" horiz-adv-x="1179" d="M225 -416v1485h82l6 -162q131 183 334 183q190 0 288.5 -142.5t98.5 -406.5q0 -262 -104.5 -413t-296.5 -151q-195 0 -314 156v-532zM319 233q115 -172 299 -172q154 0 235 122t81 358q0 469 -299 469q-176 0 -316 -189v-588z" />
<glyph unicode="q" horiz-adv-x="1189" d="M147 530q0 252 113 406t307 154q186 0 307 -154l9 133h82v-1485l-95 17v561q-113 -184 -323 -185q-184 0 -292 148.5t-108 404.5zM246 530q2 -225 85 -348t228 -123q109 0 181.5 52.5t129.5 156.5v574q-115 168 -290 168q-152 0 -244 -127q-90 -124 -90 -343v-10z" />
<glyph unicode="r" horiz-adv-x="755" d="M225 0v1069h82l6 -248q87 269 308 269q70 0 106 -13l-18 -88q-39 12 -95 12q-113 0 -181 -80.5t-114 -252.5v-668h-94z" />
<glyph unicode="s" horiz-adv-x="948" d="M90 115l53 61q145 -117 320 -117q123 0 199.5 58.5t76.5 163.5q0 102 -58 151t-230 96q-172 45 -246 111t-74 176q0 121 98 198t248 77q182 0 332 -117l-47 -64q-137 100 -283 101q-113 0 -182.5 -52.5t-69.5 -142.5q0 -82 59.5 -127t211.5 -86q184 -49 262 -117.5 t78 -201.5q0 -139 -105.5 -222.5t-267.5 -83.5q-213 0 -375 138z" />
<glyph unicode="t" horiz-adv-x="684" d="M43 989v80h178v260l94 10v-270h283l-12 -80h-271v-731q0 -197 166 -197q86 1 172 50l39 -68q-102 -66 -221 -66q-117 0 -183.5 70t-66.5 205v737h-178z" />
<glyph unicode="u" horiz-adv-x="1183" d="M215 305v764h94v-756q0 -254 228 -254q197 0 327 230v780h94v-1069h-79l-7 199q-125 -221 -354 -222q-145 0 -224 85t-79 243z" />
<glyph unicode="v" horiz-adv-x="946" d="M35 1069h104l342 -987l328 987h102l-370 -1069h-119z" />
<glyph unicode="w" horiz-adv-x="1417" d="M55 1069h101l239 -991l262 991h111l262 -993l238 993h92l-266 -1069h-127l-256 979l-256 -979h-125z" />
<glyph unicode="x" horiz-adv-x="919" d="M25 0l376 569l-327 500h110l277 -440l276 440h109l-330 -496l379 -573h-113l-325 512l-324 -512h-108z" />
<glyph unicode="y" horiz-adv-x="940" d="M35 1069h102l338 -997l328 997h102l-370 -1073q-63 -186 -149.5 -276.5t-264.5 -131.5l-12 74q152 41 214 109.5t121 228.5h-32z" />
<glyph unicode="z" horiz-adv-x="854" d="M59 0v74l613 911h-563v84h673v-76l-610 -909h604l-10 -84h-707z" />
<glyph unicode="{" horiz-adv-x="669" d="M104 672v86q160 0 160 147v547q0 125 64.5 182.5t195.5 57.5v-76q-92 0 -132 -40t-40 -128v-528q0 -100 -35.5 -142.5t-117.5 -62.5q82 -20 117.5 -62.5t35.5 -142.5v-528q0 -86 40 -126t132 -40v-76q-131 0 -195.5 57.5t-64.5 182.5v546q0 145 -160 146z" />
<glyph unicode="|" horiz-adv-x="835" d="M373 -205v1850h90v-1850h-90z" />
<glyph unicode="}" horiz-adv-x="669" d="M145 -184q92 0 132 40t40 126v528q0 100 36 142t120 63q-84 20 -120 62t-36 143v528q0 88 -39.5 128t-132.5 40v76q131 0 196 -57.5t65 -182.5v-547q0 -147 159 -147v-86q-160 0 -159 -146v-546q0 -125 -65 -182.5t-196 -57.5v76z" />
<glyph unicode="~" horiz-adv-x="954" d="M117 608q43 68 90 105t119 37q68 0 168 -57.5t145 -57.5t73.5 20.5t63.5 65.5l60 -33q-41 -66 -86 -101.5t-115 -35.5q-66 0 -169.5 57.5t-146.5 57.5q-74 0 -141 -91z" />
<glyph unicode="&#xad;" horiz-adv-x="819" d="M145 600v82h529v-82h-529z" />
<glyph unicode="&#x400;" horiz-adv-x="1032" d="M236 0v1401h694l-12 -84h-586v-545h506v-84h-506v-604h610v-84h-706zM375 1712l45 90l375 -188l-27 -60z" />
<glyph unicode="&#x401;" horiz-adv-x="1032" d="M236 0v1401h694l-12 -84h-586v-545h506v-84h-506v-604h610v-84h-706zM336 1689.5q0 28.5 19.5 48t50 19.5t50 -19.5t19.5 -48t-19.5 -48t-50 -19.5t-50 19.5t-19.5 48zM709 1689.5q0 28.5 19 48t50 19.5q29 0 48.5 -19.5t19.5 -48t-19.5 -48t-48.5 -19.5q-31 0 -50 19.5 t-19 48z" />
<glyph unicode="&#x402;" horiz-adv-x="1423" d="M31 1313v88h946l-12 -88h-418v-602q160 172 385 172q190 0 289.5 -103.5t99.5 -285.5v-310q0 -172 -63.5 -257t-237.5 -158l-29 71q139 63 185.5 135t46.5 215v299q0 307 -303 308q-215 0 -373 -193v-604h-96v1313h-420z" />
<glyph unicode="&#x403;" horiz-adv-x="1040" d="M236 0v1401h784l-14 -90h-674v-1311h-96zM457 1614l377 188l43 -90l-394 -158z" />
<glyph unicode="&#x404;" horiz-adv-x="1120" d="M143 705q0 344 159 530t403 186q197 0 350 -125l-54 -65q-135 106 -290 106q-197 0 -324 -140t-139 -427h567v-84h-569q2 -303 130 -461.5t329 -158.5q100 0 169.5 29.5t143.5 88.5l53 -65q-152 -141 -371 -142q-248 0 -402.5 190.5t-154.5 537.5z" />
<glyph unicode="&#x405;" horiz-adv-x="1099" d="M90 152l57 63q168 -152 379 -152q158 0 256.5 84t98.5 230q0 133 -74 202.5t-268 129.5q-215 66 -304.5 149.5t-89.5 226.5q0 145 111 240.5t289 95.5q127 0 216 -37.5t175 -113.5l-57 -64q-150 131 -332 131q-137 0 -220 -68.5t-83 -181.5q0 -115 71.5 -177t262.5 -119 q211 -63 306 -152.5t95 -259.5q0 -178 -124 -290t-327 -112q-254 0 -438 175z" />
<glyph unicode="&#x406;" horiz-adv-x="567" d="M236 0v1401h96v-1401h-96z" />
<glyph unicode="&#x407;" horiz-adv-x="567" d="M27 1689.5q0 28.5 19.5 48t50 19.5t50 -19.5t19.5 -48t-19.5 -48t-50 -19.5t-50 19.5t-19.5 48zM236 0v1401h96v-1401h-96zM399 1689.5q0 28.5 19.5 48t50.5 19.5q29 0 48.5 -19.5t19.5 -48t-19.5 -48t-48.5 -19.5q-31 0 -50.5 19.5t-19.5 48z" />
<glyph unicode="&#x408;" horiz-adv-x="585" d="M33 -160q139 63 185 135t46 215v1211h98v-1217q0 -172 -63 -257t-240 -158z" />
<glyph unicode="&#x409;" horiz-adv-x="1814" d="M70 63q94 35 122.5 122t69.5 417l100 799h666v-557h215q233 0 362.5 -102.5t129.5 -305.5q0 -221 -132.5 -328.5t-359.5 -107.5h-313v1315h-481l-89 -713q-43 -356 -86 -463.5t-178 -154.5zM1028 84h232q373 0 372 352q0 326 -383 326h-221v-678z" />
<glyph unicode="&#x40a;" horiz-adv-x="1900" d="M236 0v1401h96v-598h684v598h98v-598h240q217 0 342 -98.5t125 -290.5q0 -207 -130 -310.5t-343 -103.5h-332v721h-684v-721h-96zM1114 84h250q164 0 259 81t95 251q0 154 -96 229.5t-264 75.5h-244v-637z" />
<glyph unicode="&#x40b;" horiz-adv-x="1423" d="M31 1313v88h946l-12 -88h-418v-602q160 172 383 172q190 0 290.5 -103.5t100.5 -285.5v-494h-98v489q0 307 -303 308q-215 0 -373 -193v-604h-96v1313h-420z" />
<glyph unicode="&#x40c;" horiz-adv-x="1128" d="M236 0v1401h96v-621h235l396 621h104l-420 -660l453 -741h-113l-422 696h-233v-696h-96zM414 1614l377 188l43 -90l-394 -158z" />
<glyph unicode="&#x40d;" horiz-adv-x="1370" d="M236 0v1401h96v-770q0 -281 -13 -522l697 1292h119v-1401h-97v768q0 326 13 522l-695 -1290h-120zM469 1712l45 90l375 -188l-27 -60z" />
<glyph unicode="&#x40e;" horiz-adv-x="1046" d="M23 1401h104l432 -938l375 938h100l-416 -1010q-90 -219 -161.5 -295t-237.5 -119l-20 76q135 37 194.5 97.5t132.5 244.5h-28zM285 1745l65 14q39 -106 186.5 -106t186.5 106l65 -14q-14 -80 -82.5 -127t-168.5 -47q-102 0 -170 47t-82 127z" />
<glyph unicode="&#x40f;" horiz-adv-x="1345" d="M236 0v1401h96v-1315h680v1315h98v-1401h-391v-293h-74l-24 293h-385z" />
<glyph unicode="&#x410;" horiz-adv-x="1150" d="M41 0l473 1401h123l473 -1401h-104l-129 393h-609l-129 -393h-98zM297 479h553l-275 842z" />
<glyph unicode="&#x411;" horiz-adv-x="1159" d="M236 0v1401h688l-15 -86h-577v-467h239q231 0 359.5 -104.5t128.5 -307.5q0 -221 -132 -328.5t-358 -107.5h-333zM332 84h254q371 0 370 354q0 326 -381 326h-243v-680z" />
<glyph unicode="&#x412;" horiz-adv-x="1216" d="M236 0v1401h305q238 0 365.5 -88t127.5 -260q0 -133 -68.5 -211.5t-187.5 -98.5q141 -14 232.5 -101t91.5 -257q0 -188 -128 -286.5t-360 -98.5h-378zM332 84h284q383 0 383 301q0 156 -95 233.5t-253 77.5h-319v-612zM332 778h307q133 0 214 72t81 197q0 270 -383 270 h-219v-539z" />
<glyph unicode="&#x413;" horiz-adv-x="1040" d="M236 0v1401h784l-14 -90h-674v-1311h-96z" />
<glyph unicode="&#x414;" horiz-adv-x="1222" d="M-14 86h90q74 74 118 220.5t93 533.5l69 561h631v-1315h103v-379h-74l-25 293h-907l-25 -293h-73v379zM166 86h725v1229h-451l-57 -475q-45 -377 -91 -528.5t-126 -225.5z" />
<glyph unicode="&#x415;" horiz-adv-x="1032" d="M236 0v1401h694l-12 -84h-586v-545h506v-84h-506v-604h610v-84h-706z" />
<glyph unicode="&#x416;" horiz-adv-x="1548" d="M25 0l421 741l-389 660h109l362 -621h199v621h94v-621h201l367 621h102l-389 -660l422 -741h-111l-391 696h-201v-696h-94v696h-201l-393 -696h-108z" />
<glyph unicode="&#x417;" horiz-adv-x="1064" d="M51 168l62 57q156 -160 368 -159q166 0 265.5 89t99.5 246q0 150 -94.5 231t-268.5 79h-125l13 84h106q150 0 239 72.5t89 205.5q0 119 -77 191.5t-218 72.5q-188 0 -358 -147l-56 61q188 170 418 170q184 0 287.5 -96t103.5 -250q0 -131 -72.5 -211t-195.5 -106 q137 -14 224 -104.5t87 -250.5q0 -195 -129 -310.5t-336 -115.5q-254 0 -432 191z" />
<glyph unicode="&#x418;" horiz-adv-x="1370" d="M236 0v1401h96v-770q0 -281 -13 -522l697 1292h119v-1401h-97v768q0 326 13 522l-695 -1290h-120z" />
<glyph unicode="&#x419;" horiz-adv-x="1370" d="M236 0v1401h96v-770q0 -281 -13 -522l697 1292h119v-1401h-97v768q0 326 13 522l-695 -1290h-120zM432 1745l66 14q39 -106 186 -106t186 106l66 -14q-14 -80 -83 -127t-169 -47q-102 0 -170 47t-82 127z" />
<glyph unicode="&#x41a;" horiz-adv-x="1128" d="M236 0v1401h96v-621h235l396 621h104l-420 -660l453 -741h-113l-422 696h-233v-696h-96z" />
<glyph unicode="&#x41b;" horiz-adv-x="1316" d="M70 63q94 35 122.5 122t69.5 417l100 799h719v-1401h-98v1315h-534l-89 -713q-43 -356 -86 -463.5t-178 -154.5z" />
<glyph unicode="&#x41c;" horiz-adv-x="1572" d="M147 0l138 1401h137l366 -1116l357 1116h139l141 -1401h-94l-69 684q-39 358 -60 623l-368 -1139h-95l-381 1139q-4 -96 -53 -613l-65 -694h-93z" />
<glyph unicode="&#x41d;" horiz-adv-x="1366" d="M236 0v1401h96v-621h700v621h98v-1401h-98v694h-700v-694h-96z" />
<glyph unicode="&#x41e;" horiz-adv-x="1415" d="M143 696q0 340 155 532.5t409 192.5q258 0 411.5 -188.5t153.5 -534.5q0 -340 -152.5 -530.5t-412.5 -190.5q-256 0 -410 188.5t-154 530.5zM246 696q0 -309 125 -471t336 -162q219 0 340.5 161t121.5 474q0 315 -122.5 477t-339.5 162q-213 0 -337 -162.5t-124 -478.5z " />
<glyph unicode="&#x41f;" horiz-adv-x="1355" d="M236 0v1401h884v-1401h-98v1313h-690v-1313h-96z" />
<glyph unicode="&#x420;" horiz-adv-x="1159" d="M236 0v1401h313q510 0 510 -416q0 -223 -138.5 -325.5t-377.5 -102.5h-211v-557h-96zM332 639h213q197 0 304 79t107 265q0 180 -102 257t-305 77h-217v-678z" />
<glyph unicode="&#x421;" horiz-adv-x="1120" d="M143 700q0 346 159 533.5t403 187.5q197 0 350 -125l-54 -65q-135 106 -290 106q-207 0 -336 -156.5t-129 -480.5q0 -311 128 -472.5t331 -161.5q100 0 169.5 29.5t143.5 88.5l53 -65q-156 -141 -371 -142q-248 0 -402.5 189.5t-154.5 533.5z" />
<glyph unicode="&#x422;" horiz-adv-x="997" d="M31 1313v88h946l-12 -88h-418v-1313h-96v1313h-420z" />
<glyph unicode="&#x423;" horiz-adv-x="1046" d="M23 1401h104l432 -938l375 938h100l-416 -1010q-90 -219 -161.5 -295t-237.5 -119l-20 76q135 37 194.5 97.5t132.5 244.5h-28z" />
<glyph unicode="&#x424;" horiz-adv-x="1626" d="M96 711q0 598 670 620v137h94v-137q332 -8 501 -165.5t169 -450.5q0 -596 -670 -621v-141h-94v141q-334 10 -502 167t-168 450zM197 711q0 -518 571 -535v1075q-289 -14 -430 -141t-141 -399zM858 174q289 16 430.5 143t141.5 398q0 520 -572 536v-1077z" />
<glyph unicode="&#x425;" horiz-adv-x="1034" d="M25 0l430 754l-387 647h110l334 -582l330 582h106l-379 -641l441 -760h-111l-389 692l-379 -692h-106z" />
<glyph unicode="&#x426;" horiz-adv-x="1345" d="M236 0v1401h96v-1315h680v1315h98v-1315h139v-379h-73l-25 293h-915z" />
<glyph unicode="&#x427;" horiz-adv-x="1204" d="M96 854v547h99v-539q0 -152 82.5 -232.5t232.5 -80.5q225 0 360 164v688h99v-1401h-99v616q-170 -156 -378 -155q-178 0 -287 105.5t-109 287.5z" />
<glyph unicode="&#x428;" horiz-adv-x="1855" d="M236 0v1401h96v-1315h551v1315h92v-1315h551v1315h96v-1401h-1386z" />
<glyph unicode="&#x429;" horiz-adv-x="1855" d="M236 0v1401h96v-1315h551v1315h92v-1315h551v1315h96v-1315h139v-379h-73l-25 293h-1427z" />
<glyph unicode="&#x42a;" horiz-adv-x="1355" d="M31 1313v88h516v-545h239q233 0 360.5 -103.5t127.5 -310.5q0 -225 -131 -333.5t-359 -108.5h-333v1313h-420zM547 84h254q371 0 370 358q0 332 -380 332h-244v-690z" />
<glyph unicode="&#x42b;" horiz-adv-x="1615" d="M236 0v1401h96v-545h217q233 0 361 -103.5t128 -310.5q0 -225 -131 -333.5t-358 -108.5h-313zM332 84h233q371 0 371 358q0 332 -383 332h-221v-690zM1284 0v1401h96v-1401h-96z" />
<glyph unicode="&#x42c;" horiz-adv-x="1140" d="M236 0v1401h96v-545h239q233 0 360.5 -103.5t127.5 -310.5q0 -225 -131 -333.5t-359 -108.5h-333zM332 84h254q371 0 370 358q0 332 -381 332h-243v-690z" />
<glyph unicode="&#x42d;" horiz-adv-x="1071" d="M49 125l53 65q78 -61 150 -92.5t172 -31.5q399 0 403 620h-583v84h581q-18 567 -354 567q-96 0 -172 -26.5t-164 -89.5l-53 65q172 135 391 135q455 0 455 -721q0 -350 -128 -536.5t-372 -186.5q-213 0 -379 148z" />
<glyph unicode="&#x42e;" horiz-adv-x="1783" d="M236 0v1401h96v-629h223q16 305 163 477t380 172q252 0 397 -187t145 -536q0 -342 -144 -531.5t-398 -189.5q-248 0 -393.5 183.5t-151.5 525.5h-221v-686h-96zM655 702q0 -315 119 -477t324 -162q211 0 325.5 160t114.5 475q0 317 -115.5 478t-324.5 161 q-205 0 -324 -162.5t-119 -472.5z" />
<glyph unicode="&#x42f;" d="M92 0l318 610q-291 84 -291 377q0 414 522 414h334v-1401h-98v594h-367l-305 -594h-113zM221 987q0 -152 90 -231.5t248 -79.5h318v641h-232q-219 0 -321.5 -81t-102.5 -249z" />
<glyph unicode="&#x430;" horiz-adv-x="1093" d="M123 297q0 164 116.5 253t317.5 89h219v113q0 133 -59.5 194.5t-196.5 61.5q-129 0 -291 -64l-26 76q178 70 325 70q342 0 342 -332v-527q0 -90 21.5 -129t69.5 -57l-23 -68q-70 18 -105.5 61.5t-44.5 127.5q-117 -188 -337 -189q-152 0 -240 87.5t-88 232.5zM223 299 q0 -115 63.5 -178.5t176.5 -63.5q207 0 313 203v305h-205q-168 0 -258 -66.5t-90 -199.5z" />
<glyph unicode="&#x431;" horiz-adv-x="1146" d="M137 586q0 350 77 522t306 254q217 80 330 151l43 -69q-102 -72 -330 -154q-109 -41 -170 -90t-104 -154.5t-58 -283.5q59 104 158 174t232 70q184 0 287.5 -130.5t103.5 -359.5q0 -266 -115 -402.5t-317 -136.5q-205 0 -324 153t-119 456zM236 563q-2 -244 87 -374 t259 -130q330 0 329 449q0 416 -301 416q-125 0 -221 -73t-151 -196z" />
<glyph unicode="&#x432;" horiz-adv-x="1116" d="M225 0v1057q172 33 316 33q182 0 280.5 -76t98.5 -205q0 -92 -54.5 -152.5t-148.5 -76.5q125 -10 193.5 -76t68.5 -187q0 -154 -114.5 -235.5t-313.5 -81.5h-326zM319 80h232q152 0 241 58.5t89 178.5q0 217 -279 218h-283v-455zM319 610h273q109 0 170 50.5t61 146.5 q1 205 -280 205q-98 0 -224 -19v-383z" />
<glyph unicode="&#x433;" horiz-adv-x="862" d="M225 0v1069h619l-13 -84h-512v-985h-94z" />
<glyph unicode="&#x434;" horiz-adv-x="1124" d="M14 82h66q57 41 86 81t56.5 157.5t41.5 330.5l29 418h606v-987h98v-375h-73l-25 293h-786l-25 -293h-74v375zM174 82h629v905h-420l-23 -323q-20 -299 -61 -414t-125 -168z" />
<glyph unicode="&#x435;" horiz-adv-x="1091" d="M137 526q0 258 114 411t306 153q199 0 303.5 -137t104.5 -375q0 -43 -4 -84h-725q10 -219 104 -326t245.5 -107t291.5 109l47 -61q-158 -131 -342 -132q-207 0 -326 145.5t-119 403.5zM236 569h636v39q0 186 -77.5 294t-233.5 108q-139 0 -228 -109.5t-97 -331.5z" />
<glyph unicode="&#x436;" horiz-adv-x="1402" d="M63 0l324 571l-274 498h98l252 -465h194v465h88v-465h195l256 465h94l-274 -498l323 -571h-102l-297 528h-195v-528h-88v528h-196l-297 -528h-101z" />
<glyph unicode="&#x437;" horiz-adv-x="974" d="M53 119l53 59q145 -119 336 -119q297 0 297 248q0 215 -325 215h-121l6 78h100q137 0 213 54.5t76 154.5q0 94 -65.5 147.5t-180.5 53.5q-94 0 -160.5 -21.5t-146.5 -70.5l-47 61q162 111 361 111q147 0 241 -75t94 -204q0 -197 -225 -242q281 -27 281 -262 q0 -160 -108.5 -245t-285.5 -85q-229 0 -393 142z" />
<glyph unicode="&#x438;" d="M225 0v1069h94v-680q0 -113 -8 -276l561 956h111v-1069h-94v725q0 94 10 233l-563 -958h-111z" />
<glyph unicode="&#x439;" d="M225 0v1069h94v-680q0 -113 -8 -276l561 956h111v-1069h-94v725q0 94 10 233l-563 -958h-111zM352 1518l66 14q39 -106 186.5 -106.5t186.5 106.5l65 -14q-14 -80 -83 -127.5t-169 -47.5q-102 0 -169.5 47.5t-82.5 127.5z" />
<glyph unicode="&#x43a;" horiz-adv-x="1007" d="M225 0v1069h94v-463h170l314 463h104l-340 -496l396 -573h-111l-365 530h-168v-530h-94z" />
<glyph unicode="&#x43b;" horiz-adv-x="1159" d="M98 61q94 33 120 119t52 406l39 483h625v-1069h-94v987h-445l-30 -409q-27 -342 -66 -445.5t-174 -148.5z" />
<glyph unicode="&#x43c;" horiz-adv-x="1341" d="M145 0l95 1069h118l308 -836l315 836h121l94 -1069h-94l-55 666q-10 121 -19 305l-317 -834h-90l-314 834q-4 -164 -16 -305l-53 -666h-93z" />
<glyph unicode="&#x43d;" horiz-adv-x="1200" d="M225 0v1069h94v-473h562v473h94v-1069h-94v514h-562v-514h-94z" />
<glyph unicode="&#x43e;" horiz-adv-x="1161" d="M137 532q0 260 120 409t325 149q209 0 325.5 -144.5t116.5 -407t-119 -412t-325.5 -149.5t-324.5 148.5t-118 406.5zM236 532q0 -227 90 -350t254 -123q162 0 254 123t92 357q0 229 -90 349t-254 120q-162 0 -254 -122t-92 -354z" />
<glyph unicode="&#x43f;" horiz-adv-x="1193" d="M225 0v1069h744v-1069h-95v987h-555v-987h-94z" />
<glyph unicode="&#x440;" horiz-adv-x="1179" d="M225 -416v1485h82l6 -162q131 183 334 183q190 0 288.5 -142.5t98.5 -406.5q0 -262 -104.5 -413t-296.5 -151q-195 0 -314 156v-532zM319 233q115 -172 299 -172q154 0 235 122t81 358q0 469 -299 469q-176 0 -316 -189v-588z" />
<glyph unicode="&#x441;" horiz-adv-x="954" d="M137 528q0 258 122 410t325 152q168 0 293 -105l-50 -63q-104 86 -239 86q-160 0 -255 -123t-95 -357q0 -229 94 -348t254 -119q135 0 250 95l49 -64q-127 -115 -299 -115q-205 0 -327 146.5t-122 404.5z" />
<glyph unicode="&#x442;" horiz-adv-x="874" d="M18 985v84h840l-12 -84h-361v-985h-94v985h-373z" />
<glyph unicode="&#x443;" horiz-adv-x="940" d="M35 1069h102l338 -997l328 997h102l-370 -1073q-63 -186 -149.5 -276.5t-264.5 -131.5l-12 74q152 41 214 109.5t121 228.5h-32z" />
<glyph unicode="&#x444;" horiz-adv-x="1622" d="M147 541q0 260 87.5 404.5t259.5 144.5q168 0 272 -156v584l92 -13v-571q111 156 281 156q180 0 258 -142.5t78 -406.5q0 -260 -88.5 -412t-256.5 -152q-154 0 -272 152v-528l-92 -17v547q-111 -154 -277 -154q-164 0 -253 153t-89 411zM246 541q0 -233 66.5 -357.5 t191.5 -124.5q154 0 262 172v598q-109 180 -260 181q-123 0 -191.5 -120t-68.5 -349zM858 227q123 -168 266 -168q250 0 250 482q0 469 -244 469q-164 0 -272 -176v-607z" />
<glyph unicode="&#x445;" horiz-adv-x="919" d="M25 0l376 569l-327 500h110l277 -440l276 440h109l-330 -496l379 -573h-113l-325 512l-324 -512h-108z" />
<glyph unicode="&#x446;" horiz-adv-x="1181" d="M225 0v1069h94v-987h543v987h94v-987h134v-375h-74l-25 293h-766z" />
<glyph unicode="&#x447;" horiz-adv-x="1097" d="M127 653v416h94v-403q0 -221 236 -222q96 0 183 44t140 114v467h94v-1069h-94v510q-135 -145 -344 -145q-137 0 -223 73.5t-86 214.5z" />
<glyph unicode="&#x448;" horiz-adv-x="1630" d="M225 0v1069h92v-987h453v987h90v-987h453v987h92v-1069h-1180z" />
<glyph unicode="&#x449;" horiz-adv-x="1630" d="M225 0v1069h92v-987h453v987h90v-987h453v987h92v-987h133v-375h-74l-24 293h-1215z" />
<glyph unicode="&#x44a;" horiz-adv-x="1183" d="M18 989v80h467v-367h205q416 0 416 -342q0 -180 -109.5 -270t-287.5 -90h-318v989h-373zM485 80h215q305 0 306 280q0 131 -73 197t-241 66h-207v-543z" />
<glyph unicode="&#x44b;" horiz-adv-x="1447" d="M225 0v1069h94v-367h185q416 0 416 -342q0 -180 -110 -270t-288 -90h-297zM319 80h195q305 0 305 280q0 131 -72.5 197t-240.5 66h-187v-543zM1128 0v1069h95v-1069h-95z" />
<glyph unicode="&#x44c;" horiz-adv-x="1017" d="M225 0v1069h94v-367h205q416 0 416 -342q0 -180 -109.5 -270t-287.5 -90h-318zM319 80h216q305 0 305 280q0 131 -73 197t-241 66h-207v-543z" />
<glyph unicode="&#x44d;" horiz-adv-x="966" d="M84 96l49 64q127 -98 277 -99q313 0 323 453h-493v78h493q-18 418 -289 418q-141 0 -276 -92l-47 61q145 111 323 111q385 0 385 -547q0 -266 -106.5 -416t-304.5 -150q-182 0 -334 119z" />
<glyph unicode="&#x44e;" horiz-adv-x="1548" d="M225 0v1069h94v-475h250q14 229 126 362.5t294 133.5q197 0 309.5 -146.5t112.5 -404.5q0 -256 -113.5 -409t-310.5 -153q-193 0 -304.5 144.5t-115.5 392.5h-248v-514h-94zM666 532q0 -225 83.5 -349t237.5 -124q158 0 242 124t84 356q0 225 -85 347t-238.5 122 t-238.5 -121t-85 -355z" />
<glyph unicode="&#x44f;" horiz-adv-x="1101" d="M117 0l268 471q-225 61 -225 287q0 152 100.5 231.5t284.5 79.5h332v-1069h-95v453h-305l-256 -453h-104zM258 760q0 -230 264 -230h260v459h-239q-285 4 -285 -229z" />
<glyph unicode="&#x450;" horiz-adv-x="1091" d="M137 526q0 258 114 411t306 153q199 0 303.5 -137t104.5 -375q0 -43 -4 -84h-725q10 -219 104 -326t245.5 -107t291.5 109l47 -61q-158 -131 -342 -132q-207 0 -326 145.5t-119 403.5zM236 569h636v39q0 186 -77.5 294t-233.5 108q-139 0 -228 -109.5t-97 -331.5z M358 1499l43 90l377 -205l-30 -57z" />
<glyph unicode="&#x451;" horiz-adv-x="1091" d="M137 526q0 258 114 411t306 153q199 0 303.5 -137t104.5 -375q0 -43 -4 -84h-725q10 -219 104 -326t245.5 -107t291.5 109l47 -61q-158 -131 -342 -132q-207 0 -326 145.5t-119 403.5zM236 569h636v39q0 186 -77.5 294t-233.5 108q-139 0 -228 -109.5t-97 -331.5z M307 1431.5q0 28.5 19.5 48t50.5 19.5t50 -19.5t19 -48t-19 -48t-50 -19.5t-50.5 19.5t-19.5 48zM680 1431.5q0 28.5 19.5 48t50.5 19.5q29 0 48 -19.5t19 -48t-19 -48t-48 -19.5q-31 0 -50.5 19.5t-19.5 48z" />
<glyph unicode="&#x452;" horiz-adv-x="1204" d="M80 1270v78h153v157l95 13v-170h356v-78h-356v-391q149 211 366 211q143 0 219 -86t76 -242v-733q0 -135 -31.5 -219t-84 -128t-152.5 -92l-29 68q115 57 159 129t44 240v723q0 262 -213 262q-109 0 -192.5 -59.5t-161.5 -172.5v-780h-95v1270h-153z" />
<glyph unicode="&#x453;" horiz-adv-x="862" d="M225 0v1069h619l-13 -84h-512v-985h-94zM309 1384l377 205l43 -90l-389 -172z" />
<glyph unicode="&#x454;" horiz-adv-x="972" d="M137 535q0 256 124 405.5t327 149.5q162 0 299 -105l-51 -63q-119 88 -246 88q-150 0 -246 -108.5t-108 -311.5h514v-78h-517q4 -221 100.5 -336t250.5 -115q133 1 258 93l47 -68q-139 -109 -305 -109q-205 0 -326 147.5t-121 410.5z" />
<glyph unicode="&#x455;" horiz-adv-x="948" d="M90 115l53 61q145 -117 320 -117q123 0 199.5 58.5t76.5 163.5q0 102 -58 151t-230 96q-172 45 -246 111t-74 176q0 121 98 198t248 77q182 0 332 -117l-47 -64q-137 100 -283 101q-113 0 -182.5 -52.5t-69.5 -142.5q0 -82 59.5 -127t211.5 -86q184 -49 262 -117.5 t78 -201.5q0 -139 -105.5 -222.5t-267.5 -83.5q-213 0 -375 138z" />
<glyph unicode="&#x456;" horiz-adv-x="544" d="M199 1452q0 31 20.5 51.5t53 20.5t53 -20.5t20.5 -51.5t-20.5 -51.5t-53 -20.5t-53 20.5t-20.5 51.5zM225 0v1069h94v-1069h-94z" />
<glyph unicode="&#x457;" horiz-adv-x="544" d="M16 1431.5q0 28.5 19.5 48t50.5 19.5t50.5 -19.5t19.5 -48t-19.5 -48t-50.5 -19.5t-50.5 19.5t-19.5 48zM225 0v1069h94v-1069h-94zM389 1431.5q0 28.5 19.5 48t50.5 19.5q29 0 48 -19.5t19 -48t-19.5 -48t-47.5 -19.5q-31 0 -50.5 19.5t-19.5 48z" />
<glyph unicode="&#x458;" horiz-adv-x="544" d="M25 -342q115 57 157.5 129t42.5 240v1042h94v-1040q0 -197 -59 -283t-209 -156zM199 1452q0 31 20.5 51.5t53 20.5t53 -20.5t20.5 -51.5t-20.5 -51.5t-53 -20.5t-53 20.5t-20.5 51.5z" />
<glyph unicode="&#x459;" horiz-adv-x="1585" d="M98 61q94 33 120 119t52 406l39 483h596v-367h187q414 0 413 -342q0 -180 -109.5 -270t-287.5 -90h-297v991h-416l-30 -413q-27 -342 -66 -445.5t-174 -148.5zM905 80h195q307 0 307 280q0 129 -73.5 196t-241.5 67h-187v-543z" />
<glyph unicode="&#x45a;" horiz-adv-x="1638" d="M225 0v1069h94v-407h545v407h94v-407h187q213 0 313.5 -85t100.5 -235q0 -168 -109 -255t-287 -87h-299v582h-545v-582h-94zM958 80h197q305 0 305 262q0 240 -313 240h-189v-502z" />
<glyph unicode="&#x45b;" horiz-adv-x="1204" d="M80 1270v78h156v157l94 13v-170h350v-78h-350v-389q151 209 366 209q143 0 218 -86t75 -242v-762h-94v750q0 262 -213 262q-195 0 -352 -232v-780h-94v1270h-156z" />
<glyph unicode="&#x45c;" horiz-adv-x="1007" d="M225 0v1069h94v-463h170l314 463h104l-340 -496l396 -573h-111l-365 530h-168v-530h-94zM344 1384l377 205l43 -90l-389 -172z" />
<glyph unicode="&#x45d;" d="M225 0v1069h94v-680q0 -113 -8 -276l561 956h111v-1069h-94v725q0 94 10 233l-563 -958h-111zM399 1499l43 90l377 -205l-31 -57z" />
<glyph unicode="&#x45e;" horiz-adv-x="940" d="M35 1069h102l338 -997l328 997h102l-370 -1073q-63 -186 -149.5 -276.5t-264.5 -131.5l-12 74q152 41 214 109.5t121 228.5h-32zM219 1518l66 14q39 -106 186 -106.5t186 106.5l66 -14q-14 -80 -83 -127.5t-169 -47.5q-102 0 -170 47.5t-82 127.5z" />
<glyph unicode="&#x45f;" horiz-adv-x="1181" d="M225 0v1069h94v-987h543v987h94v-1069h-315v-293h-74l-24 293h-318z" />
<glyph unicode="&#x460;" horiz-adv-x="1718" d="M154 594q0 242 36.5 411t116.5 396h101q-84 -223 -120 -398.5t-36 -406.5q0 -295 77 -414t224 -119q119 0 186.5 78t67.5 269v403h98v-403q0 -193 67.5 -270t186.5 -77q72 0 124 23t95 79t65.5 162.5t22.5 264.5q0 233 -33.5 409.5t-115.5 399.5h98q80 -219 116 -391 t36 -418q0 -336 -106.5 -475.5t-297.5 -139.5q-127 0 -200.5 59.5t-104.5 182.5q-70 -242 -307 -242q-195 0 -296 145.5t-101 471.5z" />
<glyph unicode="&#x461;" horiz-adv-x="1581" d="M164 487q0 283 117 582h96q-117 -299 -117 -586q0 -424 256 -424q227 0 227 308v354l95 14v-370q0 -305 219 -306q264 0 264 422q0 274 -113 588h97q113 -283 112 -586q0 -270 -100 -388t-252 -118q-115 0 -187.5 61.5t-86.5 188.5q-45 -250 -281 -250q-160 0 -253 125 t-93 385z" />
<glyph unicode="&#x462;" horiz-adv-x="1236" d="M0 1102v82h332v217h98v-217h354v-82h-354v-248h238q233 0 360 -103.5t127 -310.5q0 -223 -131 -331.5t-358 -108.5h-334v1102h-332zM430 84h252q373 0 373 356q0 330 -383 330h-242v-686z" />
<glyph unicode="&#x463;" horiz-adv-x="1032" d="M80 975v78h158v243l94 11v-254h291l-15 -78h-276v-268h188q221 0 327.5 -90.5t106.5 -251.5q0 -365 -428 -365h-288v975h-158zM332 80h203q158 0 238.5 65.5t80.5 219.5q0 262 -326 262h-196v-547z" />
<glyph unicode="&#x464;" horiz-adv-x="1529" d="M236 0v1401h96v-631h223q16 313 172 482t387 169q197 0 350 -125l-53 -65q-135 106 -291 106q-197 0 -323.5 -140t-139.5 -427h568v-84h-570q2 -303 130 -461.5t329 -158.5q100 0 169.5 29.5t143.5 88.5l54 -65q-152 -141 -371 -142q-244 0 -398.5 184.5t-158.5 522.5 h-221v-684h-96z" />
<glyph unicode="&#x465;" horiz-adv-x="1404" d="M225 0v1069h94v-479h250q14 231 135 365.5t314 134.5q162 0 299 -105l-51 -63q-119 88 -246 88q-150 0 -246 -108.5t-108 -311.5h514v-78h-516q4 -221 100 -336t250 -115q133 1 258 93l47 -68q-139 -109 -305 -109q-199 0 -320 140.5t-127 392.5h-248v-510h-94z" />
<glyph unicode="&#x466;" horiz-adv-x="1167" d="M41 0l483 1401h121l481 -1401h-102l-219 657h-174v-657h-92l2 657h-181l-221 -657h-98zM389 741h387l-192 580z" />
<glyph unicode="&#x467;" horiz-adv-x="1003" d="M35 0l411 1069h111l412 -1069h-101l-178 481h-147v-481h-82v481h-152l-180 -481h-94zM340 561h322l-160 432z" />
<glyph unicode="&#x468;" horiz-adv-x="1601" d="M236 0v1401h96v-660h399l227 660h121l482 -1401h-103l-219 657h-174v-657h-92l2 657h-180l-222 -657h-98l227 657h-370v-657h-96zM823 741h387l-192 580z" />
<glyph unicode="&#x469;" horiz-adv-x="1374" d="M225 0v1069h94v-506h312l190 506h113l405 -1069h-98l-176 481h-145v-481h-82v481h-150l-178 -481h-92l182 481h-281v-481h-94zM719 563h315l-157 428z" />
<glyph unicode="&#x46a;" horiz-adv-x="1425" d="M25 0l381 770h204l-399 561v70h997v-70l-391 -561h203l381 -770h-111l-329 684h-201v-684h-94v684h-201l-332 -684h-108zM332 1321l385 -551l375 551h-760z" />
<glyph unicode="&#x46b;" horiz-adv-x="1310" d="M63 0l295 600h199l-303 408v61h799v-61l-303 -408h202l295 -600h-98l-254 522h-195v-522h-90v522h-196l-252 -522h-99zM367 995l290 -395l287 395h-577z" />
<glyph unicode="&#x46c;" horiz-adv-x="1677" d="M236 0v1401h96v-631h604l-361 561v70h916v-70l-354 -561h166l350 -770h-109l-301 684h-160v-684h-94v684h-160l-301 -684h-106l309 684h-399v-684h-96zM694 1321l346 -551l340 551h-686z" />
<glyph unicode="&#x46d;" horiz-adv-x="1443" d="M225 0v1069h94v-471h472l-273 410v61h721v-61l-270 -410h168l243 -598h-92l-209 520h-151v-520h-90v520h-148l-207 -520h-92l213 520h-285v-520h-94zM623 995l260 -397l254 397h-514z" />
<glyph unicode="&#x46e;" horiz-adv-x="993" d="M76 1317v84h768v-80l-477 -563h92q219 0 326.5 -98.5t107.5 -282.5q0 -178 -100.5 -273.5t-300.5 -128.5q-170 -29 -228.5 -58.5t-58.5 -94.5q0 -53 37 -91t123 -81l-33 -66q-225 98 -226 242q0 96 79 148.5t270 80.5q180 27 259 101.5t79 220.5q0 156 -86 227.5 t-256 71.5h-191v80l463 561h-647zM170 1751l43 51l248 -162l244 162l43 -51l-261 -201h-55z" />
<glyph unicode="&#x46f;" horiz-adv-x="921" d="M66 985v84h729v-76l-453 -440h199q147 0 231 -68.5t84 -191.5q0 -147 -99.5 -218t-299.5 -98q-158 -20 -224.5 -53t-66.5 -98q0 -55 37 -94t123 -82l-33 -66q-113 49 -169 107.5t-56 138.5q0 182 354 225q182 20 258 70.5t76 167.5q0 180 -221 180h-299v80l434 432h-604z M141 1513l43 50l248 -172l244 172l43 -50l-260 -213h-56z" />
<glyph unicode="&#x470;" horiz-adv-x="1355" d="M86 872v529h98v-520q0 -362 447 -381v901h94v-901q446 23 446 381v520h99v-527q0 -215 -138.5 -331.5t-404.5 -126.5v-416h-98v416q-266 12 -404.5 126.5t-138.5 329.5z" />
<glyph unicode="&#x471;" horiz-adv-x="1517" d="M195 412l2 657h94l-2 -655q0 -178 103.5 -263t320.5 -92v1010h92v-1010q227 10 335.5 125t108.5 367q0 227 -53 518h96q54 -297 54 -520q0 -291 -136.5 -424t-404.5 -148v-376l-92 -17v393q-518 12 -518 435z" />
<glyph unicode="&#x472;" horiz-adv-x="1415" d="M143 694q0 342 155 534.5t409 192.5q258 0 411.5 -188.5t153.5 -536.5q0 -340 -152.5 -529.5t-412.5 -189.5q-256 0 -410 188.5t-154 528.5zM244 676q4 -299 130 -456t333 -157q217 0 338.5 156t125.5 457h-927zM246 756h923q-12 289 -133.5 435t-328.5 146 q-203 0 -326 -147.5t-135 -433.5z" />
<glyph unicode="&#x473;" horiz-adv-x="1161" d="M137 532q0 260 120 409t325 149q209 0 325.5 -144.5t116.5 -407t-119 -412t-325.5 -149.5t-324.5 148.5t-118 406.5zM236 504q6 -215 96 -330t247.5 -115t248 114t98.5 331h-690zM238 582h688q-8 209 -98 318.5t-246 109.5q-154 0 -245 -109.5t-99 -318.5z" />
<glyph unicode="&#x474;" horiz-adv-x="1183" d="M41 1401h104l412 -1303l340 1131q61 193 227 192q94 0 179 -75l-43 -58q-66 55 -132 55q-98 0 -141 -133l-375 -1210h-112z" />
<glyph unicode="&#x475;" horiz-adv-x="987" d="M35 1069h104l342 -987l303 905q31 96 74 138t115 42q51 0 108 -26l-26 -70q-35 14 -74 14q-41 0 -64 -23.5t-43 -82.5l-333 -979h-119z" />
<glyph unicode="&#x476;" horiz-adv-x="1183" d="M41 1401h104l412 -1303l340 1131q61 193 227 192q94 0 179 -75l-43 -58q-66 55 -132 55q-98 0 -141 -133l-375 -1210h-112zM229 1858l88 47l156 -295l-63 -31zM479 1858l88 45l140 -285l-64 -31z" />
<glyph unicode="&#x477;" horiz-adv-x="987" d="M35 1069h104l342 -987l303 905q31 96 74 138t115 42q51 0 108 -26l-26 -70q-35 14 -74 14q-41 0 -64 -23.5t-43 -82.5l-333 -979h-119zM176 1599l88 48l156 -295l-64 -31zM426 1599l88 46l139 -285l-63 -31z" />
<glyph unicode="&#x478;" horiz-adv-x="2355" d="M143 696q0 340 155 532.5t409 192.5q258 0 411.5 -188.5t153.5 -534.5q0 -340 -152.5 -530.5t-412.5 -190.5q-256 0 -410 188.5t-154 530.5zM246 696q0 -309 125 -471t336 -162q219 0 340.5 161t121.5 474q0 315 -122.5 477t-339.5 162q-213 0 -337 -162.5t-124 -478.5z M1450 1069h102l338 -997l328 997h102l-370 -1073q-63 -186 -149.5 -276.5t-264.5 -131.5l-12 74q152 41 214 109.5t122 228.5h-33z" />
<glyph unicode="&#x479;" horiz-adv-x="2099" d="M137 532q0 260 120 409t325 149q209 0 325.5 -144.5t116.5 -407t-119 -412t-325.5 -149.5t-324.5 148.5t-118 406.5zM236 532q0 -227 90 -350t254 -123q162 0 254 123t92 357q0 229 -90 349t-254 120q-162 0 -254 -122t-92 -354zM1194 1069h102l338 -997l328 997h102 l-370 -1073q-63 -186 -149.5 -276.5t-264.5 -131.5l-12 74q152 41 214 109.5t122 228.5h-33z" />
<glyph unicode="&#x48a;" horiz-adv-x="1370" d="M236 0v1401h96v-770q0 -281 -13 -522l697 1292h119v-1315h159l-108 -379h-72l62 293h-138v768q0 326 13 522l-695 -1290h-120zM432 1745l66 14q39 -106 186 -106t186 106l66 -14q-14 -80 -83 -127t-169 -47q-102 0 -170 47t-82 127z" />
<glyph unicode="&#x48b;" d="M225 0v1069h94v-680q0 -113 -8 -276l561 956h111v-987h152l-107 -375h-72l62 293h-129v725q0 94 10 233l-563 -958h-111zM352 1518l66 14q39 -106 186.5 -106.5t186.5 106.5l65 -14q-14 -80 -83 -127.5t-169 -47.5q-102 0 -169.5 47.5t-82.5 127.5z" />
<glyph unicode="&#x48c;" horiz-adv-x="1144" d="M49 1104v80h191v217h96v-217h332v-80h-332v-250h239q233 0 360.5 -103.5t127.5 -310.5q0 -223 -131 -331.5t-359 -108.5h-333v1104h-191zM336 84h254q371 0 371 356q0 330 -381 330h-244v-686z" />
<glyph unicode="&#x48d;" horiz-adv-x="1034" d="M82 831v78h158v160h94v-160h291l-15 -78h-276v-165h188q219 0 325.5 -87t106.5 -237q0 -168 -110.5 -255t-315.5 -87h-288v831h-158zM334 80h203q319 0 319 262q0 244 -326 244h-196v-506z" />
<glyph unicode="&#x48e;" horiz-adv-x="1159" d="M236 0v1401h313q510 0 510 -416q0 -266 -207 -369l166 -272h-88l-150 244q-104 -31 -237 -31h-211v-557h-96zM332 639h213q115 0 190 23l-194 319h88l178 -291q150 78 149 293q0 180 -102 257t-305 77h-217v-678z" />
<glyph unicode="&#x48f;" horiz-adv-x="1179" d="M225 -416v1485h82l6 -162q131 182 334 183q190 0 288.5 -142.5t98.5 -406.5q0 -338 -164 -480l152 -249h-88l-127 206q-76 -41 -174 -41q-195 0 -314 156v-532zM319 233q115 -172 299 -172q84 0 144 33l-217 355h88l188 -310q113 117 113 402q0 469 -299 469 q-176 0 -316 -189v-588z" />
<glyph unicode="&#x490;" horiz-adv-x="1040" d="M236 0v1401h690v231h94v-231l-14 -90h-674v-1311h-96z" />
<glyph unicode="&#x491;" horiz-adv-x="862" d="M225 0v1069h527v238h92v-238l-13 -84h-512v-985h-94z" />
<glyph unicode="&#x492;" horiz-adv-x="1048" d="M43 735v78h201v588h784l-14 -90h-674v-498h348v-78h-348v-735h-96v735h-201z" />
<glyph unicode="&#x493;" horiz-adv-x="870" d="M90 535v77h146v457h618l-12 -84h-512v-373h262v-77h-262v-535h-94v535h-146z" />
<glyph unicode="&#x494;" d="M236 0v1401h688l-15 -86h-577v-610q160 174 385 174q188 0 288.5 -103.5t100.5 -288.5v-643q0 -127 -64.5 -193.5t-173.5 -66.5q-111 0 -198 68l41 63q72 -47 155 -47q141 0 142 176v641q0 305 -303 306q-217 0 -373 -191v-600h-96z" />
<glyph unicode="&#x495;" horiz-adv-x="1103" d="M225 0v1069h619l-13 -82h-512v-477q164 190 367 190q143 0 218 -85t75 -244v-527q0 -127 -64.5 -193.5t-173.5 -66.5q-111 0 -198 68l41 61q72 -47 155 -47q145 0 146 176v518q0 262 -211 263q-178 0 -355 -211v-412h-94z" />
<glyph unicode="&#x496;" horiz-adv-x="1558" d="M25 0l421 741l-389 660h109l362 -621h199v621h94v-621h201l367 621h102l-389 -660l373 -655h106v-379h-74l-24 293h-70l-391 696h-201v-696h-94v696h-201l-393 -696h-108z" />
<glyph unicode="&#x497;" horiz-adv-x="1390" d="M63 0l324 571l-274 498h98l252 -465h194v465h88v-465h195l256 465h94l-274 -498l276 -489h123v-375h-74l-24 293h-80l-297 528h-195v-528h-88v528h-196l-297 -528h-101z" />
<glyph unicode="&#x498;" horiz-adv-x="1064" d="M51 168l62 57q156 -160 368 -159q166 0 265.5 89t99.5 246q0 150 -94.5 231t-268.5 79h-125l13 84h106q150 0 239 72.5t89 205.5q0 119 -77 191.5t-218 72.5q-188 0 -358 -147l-56 61q188 170 418 170q184 0 287.5 -96t103.5 -250q0 -131 -72.5 -211t-195.5 -106 q137 -14 224 -104.5t87 -250.5q0 -180 -109.5 -292.5t-291.5 -128.5q141 -94 141 -238q0 -92 -58.5 -148.5t-162.5 -56.5q-92 0 -160 41l33 64q57 -29 125 -29q63 0 99 34t36 97q0 133 -149 231q-233 12 -400 191z" />
<glyph unicode="&#x499;" horiz-adv-x="974" d="M53 119l53 59q145 -119 336 -119q297 0 297 248q0 215 -325 215h-121l6 78h100q137 0 213 54.5t76 154.5q0 94 -65.5 147.5t-180.5 53.5q-94 0 -160.5 -21.5t-146.5 -70.5l-47 61q162 111 361 111q147 0 241 -75t94 -204q0 -197 -225 -242q281 -26 281 -262 q0 -145 -92.5 -230t-247.5 -97q139 -92 139 -236q0 -92 -58.5 -148.5t-162.5 -56.5q-92 0 -160 41l33 64q57 -29 125 -29q63 0 99 34t36 97q0 131 -152 234q-199 10 -346 139z" />
<glyph unicode="&#x49a;" horiz-adv-x="1128" d="M236 0v1401h96v-621h235l396 621h104l-420 -660l400 -655h106v-379h-74l-24 293h-68l-422 696h-233v-696h-96z" />
<glyph unicode="&#x49b;" horiz-adv-x="1007" d="M225 0v1069h94v-463h170l314 463h104l-340 -496l338 -491h125v-375h-74l-24 293h-80l-365 530h-168v-530h-94z" />
<glyph unicode="&#x49c;" horiz-adv-x="1138" d="M236 0v1401h96v-621h112v373h72v-373h62l385 621h104l-412 -660l445 -741h-111l-416 696h-57v-374h-72v374h-112v-696h-96z" />
<glyph unicode="&#x49d;" horiz-adv-x="1032" d="M225 0v1069h94v-463h103v242h63v-242h72l248 463h100l-270 -496l326 -573h-105l-299 530h-72v-278h-63v278h-103v-530h-94z" />
<glyph unicode="&#x49e;" horiz-adv-x="1130" d="M49 1122v84h189v195h96v-195h258v-84h-258v-342h235l396 621h104l-420 -660l453 -741h-113l-422 696h-233v-696h-96v1122h-189z" />
<glyph unicode="&#x49f;" horiz-adv-x="1017" d="M80 1188v78h156v239l94 13v-252h350v-78h-350v-582h170l313 463h105l-340 -496l395 -573h-111l-364 530h-168v-530h-94v1188h-156z" />
<glyph unicode="&#x4a0;" horiz-adv-x="1343" d="M31 1313v88h516v-621h235l396 621h104l-420 -660l453 -741h-113l-422 696h-233v-696h-96v1313h-420z" />
<glyph unicode="&#x4a1;" horiz-adv-x="1110" d="M18 989v80h406v-463h170l313 463h105l-340 -496l395 -573h-111l-364 530h-168v-530h-94v991l-2 -2h-310z" />
<glyph unicode="&#x4a2;" horiz-adv-x="1366" d="M236 0v1401h96v-621h700v621h98v-1315h140v-379h-74l-25 293h-139v694h-700v-694h-96z" />
<glyph unicode="&#x4a3;" horiz-adv-x="1200" d="M225 0v1069h94v-473h562v473h94v-987h133v-375h-74l-24 293h-129v514h-562v-514h-94z" />
<glyph unicode="&#x4a4;" horiz-adv-x="1581" d="M236 0v1401h96v-621h700v621h529l-15 -88h-416v-1313h-98v694h-700v-694h-96z" />
<glyph unicode="&#x4a5;" horiz-adv-x="1363" d="M225 0v1069h94v-473h562v473h467l-11 -84h-362v-985h-94v514h-562v-514h-94z" />
<glyph unicode="&#x4a6;" horiz-adv-x="1998" d="M236 0v1401h884v-694q156 176 389 176q188 0 287.5 -103.5t99.5 -285.5v-650q0 -127 -64.5 -193.5t-172.5 -66.5q-111 0 -199 68l41 63q72 -47 156 -47q141 0 141 176v158h2v487q0 307 -305 308q-217 0 -375 -199v-598h-98v1313h-690v-1313h-96z" />
<glyph unicode="&#x4a7;" horiz-adv-x="1755" d="M225 0v1069h744v-563q161 194 368 194q141 0 217 -85t76 -244v-527q0 -127 -64.5 -193.5t-172.5 -66.5q-111 0 -199 68l41 61q72 -47 156 -47q145 0 145 176v518q0 262 -211 263q-104 0 -186 -54.5t-170 -156.5v-412h-95v987h-555v-987h-94z" />
<glyph unicode="&#x4a8;" horiz-adv-x="1427" d="M143 700.5q0 346.5 159 533.5t403 187q197 0 350 -125l-54 -65q-135 106 -290 106q-207 0 -336 -156.5t-129 -480.5q0 -313 131 -473.5t348 -160.5q55 0 96 8q-94 113 -138 212t-42 214q0 160 91 257t241 97q145 0 231 -91t86 -245q0 -168 -85 -298t-232 -193 q27 -29 85 -91.5t89 -95.5l-66 -51q-156 166 -194 209q-76 -20 -166 -21q-262 0 -420 188.5t-158 535zM737 500q0 -115 41 -206t133 -200q131 45 206 153.5t75 270.5q0 119 -58.5 185.5t-160.5 66.5q-106 0 -171 -71.5t-65 -198.5z" />
<glyph unicode="&#x4a9;" horiz-adv-x="1206" d="M137 528q0 258 122 410t325 152q168 0 293 -105l-50 -63q-104 86 -239 86q-160 0 -255 -123t-95 -357q0 -229 94 -348t254 -119q20 0 57 5q-152 193 -149 360q2 135 80.5 223t216.5 88q127 0 203.5 -82t76.5 -213q0 -133 -76.5 -249.5t-206.5 -172.5q18 -20 74 -80.5 t88 -99.5l-59 -51q-12 14 -83 90t-103 113q-51 -14 -119 -15q-205 0 -327 146.5t-122 404.5zM588 426q0 -162 145 -340q113 41 177.5 138.5t64.5 217.5q0 96 -49 155.5t-138 59.5q-92 0 -146 -63.5t-54 -167.5z" />
<glyph unicode="&#x4aa;" horiz-adv-x="1120" d="M143 700q0 346 159 533.5t403 187.5q197 0 350 -125l-54 -65q-135 106 -290 106q-207 0 -336 -156.5t-129 -480.5q0 -311 128 -472.5t331 -161.5q100 0 169.5 29.5t143.5 88.5l53 -65q-141 -130 -334 -142q137 -90 137 -233q0 -92 -58 -148.5t-163 -56.5q-92 0 -159 41 l32 64q57 -29 125 -29q63 0 99 34t36 97q0 133 -155 236q-219 27 -353.5 214t-134.5 504z" />
<glyph unicode="&#x4ab;" horiz-adv-x="954" d="M137 528q0 258 122 410t325 152q168 0 293 -105l-50 -63q-104 86 -239 86q-160 0 -255 -123t-95 -357q0 -229 94 -348t254 -119q135 0 250 95l49 -64q-117 -103 -269 -115q137 -90 138 -233q0 -92 -58.5 -148.5t-163.5 -56.5q-92 0 -159 41l33 64q57 -29 124 -29 q63 0 99.5 34t36.5 97q0 135 -158 238q-172 27 -271.5 170t-99.5 374z" />
<glyph unicode="&#x4ac;" horiz-adv-x="997" d="M31 1313v88h946l-12 -88h-418v-1227h139v-379h-74l-24 293h-137v1313h-420z" />
<glyph unicode="&#x4ad;" horiz-adv-x="874" d="M18 985v84h840l-12 -84h-361v-903h133v-375h-73l-25 293h-129v985h-373z" />
<glyph unicode="&#x4ae;" horiz-adv-x="1050" d="M33 1401h108l389 -762l381 762h107l-443 -850v-551h-96v549z" />
<glyph unicode="&#x4af;" horiz-adv-x="946" d="M35 1069h104l342 -936l330 936h100l-385 -1032v-436l-92 -17v453z" />
<glyph unicode="&#x4b0;" horiz-adv-x="1050" d="M33 1401h108l389 -762l381 762h107l-418 -801h225v-82h-250v-518h-96v518h-250v82h224z" />
<glyph unicode="&#x4b1;" horiz-adv-x="946" d="M35 1069h104l342 -936l330 936h100l-366 -983h196v-78h-215v-407l-92 -17v424h-215v78h197z" />
<glyph unicode="&#x4b2;" horiz-adv-x="1040" d="M25 0l430 754l-387 647h110l334 -582l330 582h106l-379 -641l392 -674h102v-379h-74l-24 293h-66l-389 692l-379 -692h-106z" />
<glyph unicode="&#x4b3;" horiz-adv-x="921" d="M25 0l376 569l-327 500h110l277 -440l276 440h109l-330 -496l326 -491h102v-375h-74l-24 293h-64l-325 512l-324 -512h-108z" />
<glyph unicode="&#x4b4;" horiz-adv-x="1560" d="M31 1315v86h936l-13 -86h-407v-1229h682v1315h96v-1315h139v-379h-73l-25 293h-915v1315h-420z" />
<glyph unicode="&#x4b5;" horiz-adv-x="1347" d="M18 989v80h813l-12 -80h-334v-907h543v987h94v-987h133v-375h-73l-25 293h-766v989h-373z" />
<glyph unicode="&#x4b6;" horiz-adv-x="1204" d="M96 854v547h99v-539q0 -152 82.5 -232.5t232.5 -80.5q225 0 360 164v688h99v-1315h139v-379h-74l-24 293h-140v616q-170 -156 -378 -155q-178 0 -287 105.5t-109 287.5z" />
<glyph unicode="&#x4b7;" horiz-adv-x="1097" d="M127 653v416h94v-403q0 -221 236 -222q96 0 183 44t140 114v467h94v-987h134v-375h-74l-25 293h-129v510q-135 -145 -344 -145q-137 0 -223 73.5t-86 214.5z" />
<glyph unicode="&#x4b8;" horiz-adv-x="1204" d="M96 854v547h99v-539q0 -150 79.5 -229.5t223.5 -83.5v522h75v-518q184 25 297 160v688h99v-1401h-99v616q-137 -127 -297 -149v-229h-75v223h-6q-178 0 -287 105.5t-109 287.5z" />
<glyph unicode="&#x4b9;" horiz-adv-x="1097" d="M127 653v416h94v-403q0 -217 232 -222v332h71v-325q162 29 256 151v467h94v-1069h-94v510q-104 -111 -256 -137v-180h-71v172h-17q-137 0 -223 73.5t-86 214.5z" />
<glyph unicode="&#x4ba;" d="M236 0v1401h96v-690q160 172 383 172q190 0 290.5 -103.5t100.5 -285.5v-494h-98v489q0 307 -303 308q-215 0 -373 -193v-604h-96z" />
<glyph unicode="&#x4bb;" horiz-adv-x="1183" d="M225 0v1505l94 13v-758q148 207 367 207q143 0 218 -85t75 -243v-639h-94v627q0 262 -211 262q-197 0 -355 -232v-657h-94z" />
<glyph unicode="&#x4bc;" horiz-adv-x="1486" d="M14 864q0 86 70 195l70 -39q-47 -86 -48 -154q0 -139 156 -139h41q6 344 152.5 519t388.5 175q246 0 383 -178t137 -520q0 -49 -4 -78h-957q12 -295 128 -438.5t313 -143.5q205 0 385 144l53 -62q-195 -168 -440 -168q-240 0 -383.5 168t-155.5 500h-31 q-123 0 -190.5 60.5t-67.5 158.5zM403 727h861q-2 307 -112 458.5t-308 151.5q-195 0 -314 -149.5t-127 -460.5z" />
<glyph unicode="&#x4bd;" horiz-adv-x="1247" d="M25 707q0 86 67 186l66 -33q-47 -86 -47 -151q0 -139 155 -140h25q10 240 122.5 380.5t297.5 140.5q199 0 303 -137t104 -375q0 -43 -4 -84h-725q10 -219 104.5 -326t246 -107t290.5 109l47 -61q-158 -131 -342 -132q-201 0 -318.5 137.5t-125.5 379.5h-12 q-123 0 -188.5 56t-65.5 157zM389 569h637v39q0 186 -78 294t-233 108q-139 0 -228.5 -109.5t-97.5 -331.5z" />
<glyph unicode="&#x4be;" horiz-adv-x="1486" d="M14 864q0 86 70 195l70 -39q-47 -86 -48 -154q0 -139 156 -139h41q6 344 152.5 519t388.5 175q246 0 383 -178t137 -520q0 -49 -4 -78h-957q12 -295 128 -438.5t313 -143.5q205 0 385 144l53 -62q-131 -113 -272 -147q-131 -61 -187.5 -114.5t-56.5 -127.5 q0 -109 133 -108q51 0 117 12l-8 -82q-72 -14 -117 -14q-104 0 -160.5 51t-56.5 131q0 135 170 231h-2q-240 0 -383.5 168t-155.5 500h-31q-123 0 -190.5 60.5t-67.5 158.5zM403 727h861q-2 307 -112 458.5t-308 151.5q-195 0 -314 -149.5t-127 -460.5z" />
<glyph unicode="&#x4bf;" horiz-adv-x="1247" d="M25 707q0 86 67 186l66 -33q-47 -86 -47 -151q0 -139 155 -140h25q10 240 122.5 380.5t297.5 140.5q199 0 303 -137t104 -375q0 -43 -4 -84h-725q10 -219 104.5 -326t246 -107t290.5 109l47 -61q-90 -76 -180 -105q-125 -59 -179 -112.5t-54 -124.5q0 -109 133 -109 q51 0 116 12l-8 -82q-72 -14 -117 -14q-104 0 -160.5 51t-56.5 131q0 129 152 221q-195 4 -309.5 140.5t-122.5 376.5h-12q-123 0 -188.5 56t-65.5 157zM389 569h637v39q0 186 -78 294t-233 108q-139 0 -228.5 -109.5t-97.5 -331.5z" />
<glyph unicode="&#x4c0;" horiz-adv-x="567" d="M236 0v1401h96v-1401h-96z" />
<glyph unicode="&#x4c1;" horiz-adv-x="1548" d="M25 0l421 741l-389 660h109l362 -621h199v621h94v-621h201l367 621h102l-389 -660l422 -741h-111l-391 696h-201v-696h-94v696h-201l-393 -696h-108zM520 1745l66 14q39 -106 186.5 -106t185.5 106l66 -14q-14 -80 -83 -127t-169 -47q-102 0 -169.5 47t-82.5 127z" />
<glyph unicode="&#x4c2;" horiz-adv-x="1402" d="M63 0l324 571l-274 498h98l252 -465h194v465h88v-465h195l256 465h94l-274 -498l323 -571h-102l-297 528h-195v-528h-88v528h-196l-297 -528h-101zM451 1518l65 14q39 -106 186.5 -106.5t186.5 106.5l65 -14q-14 -80 -83 -127.5t-169 -47.5q-102 0 -169.5 47.5 t-81.5 127.5z" />
<glyph unicode="&#x4c3;" horiz-adv-x="1169" d="M236 0v1401h96v-643h235l396 643h104l-401 -645q207 -10 299 -108.5t92 -309.5v-494q0 -127 -64.5 -193.5t-173.5 -66.5q-111 0 -198 68l41 63q72 -47 155 -47q141 0 141 176v490q0 188 -76.5 264t-273.5 76h-276v-674h-96z" />
<glyph unicode="&#x4c4;" horiz-adv-x="1042" d="M225 0v1069h94v-477h177l307 477h104l-313 -475q168 -8 240.5 -90t72.5 -240v-420q0 -127 -64.5 -193.5t-172.5 -66.5q-111 0 -199 68l41 61q72 -47 156 -47q145 0 145 176v416q0 133 -56.5 195.5t-213.5 62.5h-224v-516h-94z" />
<glyph unicode="&#x4c5;" horiz-adv-x="1316" d="M70 63q94 35 122.5 122t69.5 417l100 799h719v-1315h160l-108 -379h-72l61 293h-139v1315h-534l-89 -713q-43 -356 -86 -463.5t-178 -154.5z" />
<glyph unicode="&#x4c6;" horiz-adv-x="1165" d="M98 61q94 33 120 119t52 406l39 483h625v-987h151l-106 -375h-72l62 293h-129v987h-445l-30 -409q-27 -342 -66 -445.5t-174 -148.5z" />
<glyph unicode="&#x4c7;" horiz-adv-x="1366" d="M236 0v1401h96v-621h700v621h98v-1557q0 -127 -64.5 -193.5t-172.5 -66.5q-111 0 -199 68l41 63q72 -47 156 -47q141 0 141 176v850h-700v-694h-96z" />
<glyph unicode="&#x4c8;" horiz-adv-x="1200" d="M225 0v1069h94v-473h562v473h94v-1225q0 -127 -64.5 -193.5t-173.5 -66.5q-111 0 -198 68l41 61q72 -47 155 -47q145 0 146 176v672h-562v-514h-94z" />
<glyph unicode="&#x4c9;" horiz-adv-x="1366" d="M236 0v1401h96v-621h700v621h98v-1315h160l-108 -379h-72l61 293h-139v694h-700v-694h-96z" />
<glyph unicode="&#x4ca;" d="M225 0v1069h94v-473h562v473h94v-987h151l-106 -375h-72l62 293h-129v514h-562v-514h-94z" />
<glyph unicode="&#x4cb;" horiz-adv-x="1204" d="M96 854v547h99v-539q0 -152 82.5 -232.5t232.5 -80.5q225 0 360 164v688h99v-1401h-113l-27 -293h-71v379h112v530q-170 -156 -378 -155q-178 0 -287 105.5t-109 287.5z" />
<glyph unicode="&#x4cc;" horiz-adv-x="1097" d="M127 659v410h94v-397q0 -221 236 -221q96 0 183 44t140 113v461h94v-1069h-133l-24 -293h-72v375h135v432q-137 -145 -344 -145q-137 0 -223 74.5t-86 215.5z" />
<glyph unicode="&#x4cd;" horiz-adv-x="1572" d="M147 0l138 1401h137l366 -1116l357 1116h139l133 -1315h168l-108 -379h-72l61 293h-135l-69 684q-39 358 -60 623l-368 -1139h-95l-381 1139q-4 -96 -53 -613l-65 -694h-93z" />
<glyph unicode="&#x4ce;" horiz-adv-x="1427" d="M145 0l95 1069h118l308 -836l315 836h121l86 -987h160l-107 -375h-72l62 293h-129l-55 666q-10 121 -19 305l-317 -834h-90l-314 834q-4 -164 -16 -305l-53 -666h-93z" />
<glyph unicode="&#x4cf;" horiz-adv-x="575" d="M215 168v1337l94 13v-1346q0 -111 92 -111q37 0 76 15l27 -72q-58 -27 -113 -27q-82 0 -129 48.5t-47 142.5z" />
<glyph unicode="&#x4d0;" horiz-adv-x="1150" d="M41 0l473 1401h123l473 -1401h-104l-129 393h-609l-129 -393h-98zM297 479h553l-275 842zM322 1745l65 14q39 -106 186.5 -106t186.5 106l65 -14q-14 -80 -83 -127t-169 -47q-102 0 -169.5 47t-81.5 127z" />
<glyph unicode="&#x4d1;" horiz-adv-x="1093" d="M123 297q0 164 116.5 253t317.5 89h219v113q0 133 -59.5 194.5t-196.5 61.5q-129 0 -291 -64l-26 76q178 70 325 70q342 0 342 -332v-527q0 -90 21.5 -129t69.5 -57l-23 -68q-70 18 -105.5 61.5t-44.5 127.5q-117 -188 -337 -189q-152 0 -240 87.5t-88 232.5zM223 299 q0 -115 63.5 -178.5t176.5 -63.5q207 0 313 203v305h-205q-168 0 -258 -66.5t-90 -199.5zM274 1518l66 14q39 -106 186.5 -106.5t186.5 106.5l65 -14q-14 -80 -83 -127.5t-169 -47.5q-102 0 -169.5 47.5t-82.5 127.5z" />
<glyph unicode="&#x4d2;" horiz-adv-x="1150" d="M41 0l473 1401h123l473 -1401h-104l-129 393h-609l-129 -393h-98zM297 479h553l-275 842zM319 1689.5q0 28.5 19.5 48t50.5 19.5t50.5 -19.5t19.5 -48t-19.5 -48t-50.5 -19.5t-50.5 19.5t-19.5 48zM692 1689.5q0 28.5 19.5 48t50.5 19.5q29 0 48 -19.5t19 -48t-19 -48 t-48 -19.5q-31 0 -50.5 19.5t-19.5 48z" />
<glyph unicode="&#x4d3;" horiz-adv-x="1093" d="M123 297q0 164 116.5 253t317.5 89h219v113q0 133 -59.5 194.5t-196.5 61.5q-129 0 -291 -64l-26 76q178 70 325 70q342 0 342 -332v-527q0 -90 21.5 -129t69.5 -57l-23 -68q-70 18 -105.5 61.5t-44.5 127.5q-117 -188 -337 -189q-152 0 -240 87.5t-88 232.5zM223 299 q0 -115 63.5 -178.5t176.5 -63.5q207 0 313 203v305h-205q-168 0 -258 -66.5t-90 -199.5zM270 1431.5q0 28.5 19.5 48t50.5 19.5t50.5 -19.5t19.5 -48t-19.5 -48t-50.5 -19.5t-50.5 19.5t-19.5 48zM643 1431.5q0 28.5 19.5 48t50.5 19.5q29 0 48 -19.5t19 -48t-19 -48 t-48 -19.5q-31 0 -50.5 19.5t-19.5 48z" />
<glyph unicode="&#x4d4;" horiz-adv-x="1581" d="M8 0l543 1401h840l-13 -84h-676l142 -545h530v-84h-508l156 -604h471v-84h-547l-98 385h-596l-146 -385h-98zM285 469h542l-219 854z" />
<glyph unicode="&#x4d5;" horiz-adv-x="1732" d="M123 297q0 164 116.5 254t319.5 90h219v111q0 133 -59.5 194.5t-196.5 61.5q-129 0 -291 -64l-26 76q174 70 325 70q270 0 328 -224q111 223 348 224q195 0 297.5 -137t102.5 -375q0 -43 -4 -84h-725q10 -219 104 -326t245.5 -107t291.5 109l47 -61q-158 -131 -342 -132 q-264 0 -379 230q-86 -123 -178.5 -176.5t-212.5 -53.5q-154 0 -242 87.5t-88 232.5zM225 299q0 -115 63.5 -178.5t176.5 -63.5q104 0 186 54.5t162 173.5q-35 109 -35 239v41h-205q-168 0 -258 -66.5t-90 -199.5zM877 569h636v39q0 186 -77.5 294t-229.5 108 q-141 0 -231 -109.5t-98 -331.5z" />
<glyph unicode="&#x4d6;" horiz-adv-x="1032" d="M236 0v1401h694l-12 -84h-586v-545h506v-84h-506v-604h610v-84h-706zM338 1745l65 14q39 -106 186.5 -106t186.5 106l66 -14q-14 -80 -83 -127t-169 -47q-102 0 -170 47t-82 127z" />
<glyph unicode="&#x4d7;" horiz-adv-x="1091" d="M137 526q0 258 114 411t306 153q199 0 303.5 -137t104.5 -375q0 -43 -4 -84h-725q10 -219 104 -326t245.5 -107t291.5 109l47 -61q-158 -131 -342 -132q-207 0 -326 145.5t-119 403.5zM236 569h636v39q0 186 -77.5 294t-233.5 108q-139 0 -228 -109.5t-97 -331.5z M311 1518l66 14q39 -106 186.5 -106.5t186.5 106.5l65 -14q-14 -80 -83 -127.5t-169 -47.5q-102 0 -169.5 47.5t-82.5 127.5z" />
<glyph unicode="&#x4d8;" horiz-adv-x="1327" d="M123 678q0 49 2 78h956q-23 582 -432 581q-203 0 -387 -145l-51 63q192 166 440 166q254 0 393.5 -176t139.5 -543q0 -358 -144.5 -541.5t-390.5 -183.5q-248 0 -387 179.5t-139 521.5zM223 674q0 -307 112.5 -459t315.5 -152q193 0 308.5 148.5t121.5 462.5h-858z" />
<glyph unicode="&#x4d9;" horiz-adv-x="1101" d="M127 502q0 53 4 73h737q-8 219 -92 326t-231 107q-156 0 -301 -103l-45 66q153 119 348 119q203 0 311.5 -140.5t108.5 -408.5q0 -274 -115 -419t-311 -145q-193 0 -303.5 140.5t-110.5 384.5zM221 487q0 -205 84 -316.5t236 -111.5q315 0 327 439h-647v-11z" />
<glyph unicode="&#x4da;" horiz-adv-x="1327" d="M123 678q0 49 2 78h956q-23 582 -432 581q-203 0 -387 -145l-51 63q192 166 440 166q254 0 393.5 -176t139.5 -543q0 -358 -144.5 -541.5t-390.5 -183.5q-248 0 -387 179.5t-139 521.5zM223 674q0 -307 112.5 -459t315.5 -152q193 0 308.5 148.5t121.5 462.5h-858z M395 1689.5q0 28.5 19.5 48t50.5 19.5t50.5 -19.5t19.5 -48t-19.5 -48t-50.5 -19.5t-50.5 19.5t-19.5 48zM768 1689.5q0 28.5 19.5 48t50.5 19.5q29 0 48 -19.5t19 -48t-19 -48t-48 -19.5q-31 0 -50.5 19.5t-19.5 48z" />
<glyph unicode="&#x4db;" horiz-adv-x="1101" d="M127 502q0 53 4 73h737q-8 219 -92 326t-231 107q-156 0 -301 -103l-45 66q153 119 348 119q203 0 311.5 -140.5t108.5 -408.5q0 -274 -115 -419t-311 -145q-193 0 -303.5 140.5t-110.5 384.5zM221 487q0 -205 84 -316.5t236 -111.5q315 0 327 439h-647v-11zM291 1431.5 q0 28.5 19.5 48t50 19.5t50 -19.5t19.5 -48t-19.5 -48t-50 -19.5t-50 19.5t-19.5 48zM664 1431.5q0 28.5 19 48t50 19.5q29 0 48.5 -19.5t19.5 -48t-19.5 -48t-48.5 -19.5q-31 0 -50 19.5t-19 48z" />
<glyph unicode="&#x4dc;" horiz-adv-x="1548" d="M25 0l421 741l-389 660h109l362 -621h199v621h94v-621h201l367 621h102l-389 -660l422 -741h-111l-391 696h-201v-696h-94v696h-201l-393 -696h-108zM518 1689.5q0 28.5 19.5 48t50 19.5t50 -19.5t19.5 -48t-19.5 -48t-50 -19.5t-50 19.5t-19.5 48zM891 1689.5 q0 28.5 19.5 48t50.5 19.5q29 0 48 -19.5t19 -48t-19.5 -48t-47.5 -19.5q-31 0 -50.5 19.5t-19.5 48z" />
<glyph unicode="&#x4dd;" horiz-adv-x="1402" d="M63 0l324 571l-274 498h98l252 -465h194v465h88v-465h195l256 465h94l-274 -498l323 -571h-102l-297 528h-195v-528h-88v528h-196l-297 -528h-101zM446 1431.5q0 28.5 19.5 48t50.5 19.5t50.5 -19.5t19.5 -48t-19.5 -48t-50.5 -19.5t-50.5 19.5t-19.5 48zM819 1431.5 q0 28.5 19.5 48t50.5 19.5q29 0 48 -19.5t19 -48t-19 -48t-48 -19.5q-31 0 -50.5 19.5t-19.5 48z" />
<glyph unicode="&#x4de;" horiz-adv-x="1064" d="M51 168l62 57q156 -160 368 -159q166 0 265.5 89t99.5 246q0 150 -94.5 231t-268.5 79h-125l13 84h106q150 0 239 72.5t89 205.5q0 119 -77 191.5t-218 72.5q-188 0 -358 -147l-56 61q188 170 418 170q184 0 287.5 -96t103.5 -250q0 -131 -72.5 -211t-195.5 -106 q137 -14 224 -104.5t87 -250.5q0 -195 -129 -310.5t-336 -115.5q-254 0 -432 191zM258 1689.5q0 28.5 19.5 48t50 19.5t50 -19.5t19.5 -48t-19.5 -48t-50 -19.5t-50 19.5t-19.5 48zM631 1689.5q0 28.5 19 48t50 19.5q29 0 48.5 -19.5t19.5 -48t-19.5 -48t-48.5 -19.5 q-31 0 -50 19.5t-19 48z" />
<glyph unicode="&#x4df;" horiz-adv-x="974" d="M53 119l53 59q145 -119 336 -119q297 0 297 248q0 215 -325 215h-121l6 78h100q137 0 213 54.5t76 154.5q0 94 -65.5 147.5t-180.5 53.5q-94 0 -160.5 -21.5t-146.5 -70.5l-47 61q162 111 361 111q147 0 241 -75t94 -204q0 -197 -225 -242q281 -27 281 -262 q0 -160 -108.5 -245t-285.5 -85q-229 0 -393 142zM188 1431.5q0 28.5 19.5 48t50.5 19.5t50.5 -19.5t19.5 -48t-19.5 -48t-50.5 -19.5t-50.5 19.5t-19.5 48zM561 1431.5q0 28.5 19.5 48t50.5 19.5q29 0 48 -19.5t19 -48t-19.5 -48t-47.5 -19.5q-31 0 -50.5 19.5t-19.5 48z " />
<glyph unicode="&#x4e0;" horiz-adv-x="995" d="M35 152l59 57q137 -145 350 -146q170 0 260.5 87.5t90.5 232.5q0 319 -363 319h-170v80l463 535h-647v84h766v-80l-475 -539h73q223 0 338 -103.5t115 -295.5q0 -178 -120 -292t-326 -114q-256 0 -414 175z" />
<glyph unicode="&#x4e1;" horiz-adv-x="929" d="M31 -242l59 54q137 -143 332 -144q166 0 253 91t87 249q0 170 -93.5 245t-293.5 75h-119v78l442 579h-626v84h739v-76l-453 -587h29q475 0 475 -400q0 -188 -118.5 -305t-319.5 -117q-236 0 -393 174z" />
<glyph unicode="&#x4e2;" horiz-adv-x="1370" d="M236 0v1401h96v-770q0 -281 -13 -522l697 1292h119v-1401h-97v768q0 326 13 522l-695 -1290h-120zM451 1649v80h469v-80h-469z" />
<glyph unicode="&#x4e3;" d="M225 0v1069h94v-680q0 -113 -8 -276l561 956h111v-1069h-94v725q0 94 10 233l-563 -958h-111zM369 1391v79h469v-79h-469z" />
<glyph unicode="&#x4e4;" horiz-adv-x="1370" d="M236 0v1401h96v-770q0 -281 -13 -522l697 1292h119v-1401h-97v768q0 326 13 522l-695 -1290h-120zM430 1689.5q0 28.5 19.5 48t50 19.5t50 -19.5t19.5 -48t-19.5 -48t-50 -19.5t-50 19.5t-19.5 48zM803 1689.5q0 28.5 19 48t50 19.5q29 0 48.5 -19.5t19.5 -48t-19.5 -48 t-48.5 -19.5q-31 0 -50 19.5t-19 48z" />
<glyph unicode="&#x4e5;" d="M225 0v1069h94v-680q0 -113 -8 -276l561 956h111v-1069h-94v725q0 94 10 233l-563 -958h-111zM348 1431.5q0 28.5 19.5 48t50.5 19.5t50 -19.5t19 -48t-19 -48t-50 -19.5t-50.5 19.5t-19.5 48zM721 1431.5q0 28.5 19.5 48t50.5 19.5q29 0 48 -19.5t19 -48t-19.5 -48 t-47.5 -19.5q-31 0 -50.5 19.5t-19.5 48z" />
<glyph unicode="&#x4e6;" horiz-adv-x="1415" d="M143 696q0 340 155 532.5t409 192.5q258 0 411.5 -188.5t153.5 -534.5q0 -340 -152.5 -530.5t-412.5 -190.5q-256 0 -410 188.5t-154 530.5zM246 696q0 -309 125 -471t336 -162q219 0 340.5 161t121.5 474q0 315 -122.5 477t-339.5 162q-213 0 -337 -162.5t-124 -478.5z M451 1689.5q0 28.5 19 48t50 19.5t50.5 -19.5t19.5 -48t-19.5 -48t-50.5 -19.5t-50 19.5t-19 48zM823 1689.5q0 28.5 19.5 48t50.5 19.5q29 0 48.5 -19.5t19.5 -48t-19.5 -48t-48.5 -19.5q-31 0 -50.5 19.5t-19.5 48z" />
<glyph unicode="&#x4e7;" horiz-adv-x="1161" d="M137 532q0 260 120 409t325 149q209 0 325.5 -144.5t116.5 -407t-119 -412t-325.5 -149.5t-324.5 148.5t-118 406.5zM236 532q0 -227 90 -350t254 -123q162 0 254 123t92 357q0 229 -90 349t-254 120q-162 0 -254 -122t-92 -354zM326 1431.5q0 28.5 19.5 48t50 19.5 t50 -19.5t19.5 -48t-19.5 -48t-50 -19.5t-50 19.5t-19.5 48zM698 1431.5q0 28.5 19.5 48t50.5 19.5q29 0 48.5 -19.5t19.5 -48t-19.5 -48t-48.5 -19.5q-31 0 -50.5 19.5t-19.5 48z" />
<glyph unicode="&#x4e8;" horiz-adv-x="1415" d="M143 694q0 342 155 534.5t409 192.5q258 0 411.5 -188.5t153.5 -536.5q0 -340 -152.5 -529.5t-412.5 -189.5q-256 0 -410 188.5t-154 528.5zM244 676q4 -299 130 -456t333 -157q217 0 338.5 156t125.5 457h-927zM246 756h923q-12 289 -133.5 435t-328.5 146 q-203 0 -326 -147.5t-135 -433.5z" />
<glyph unicode="&#x4e9;" horiz-adv-x="1161" d="M137 532q0 260 120 409t325 149q209 0 325.5 -144.5t116.5 -407t-119 -412t-325.5 -149.5t-324.5 148.5t-118 406.5zM236 504q6 -215 96 -330t247.5 -115t248 114t98.5 331h-690zM238 582h688q-8 209 -98 318.5t-246 109.5q-154 0 -245 -109.5t-99 -318.5z" />
<glyph unicode="&#x4ea;" horiz-adv-x="1415" d="M143 694q0 342 155 534.5t409 192.5q258 0 411.5 -188.5t153.5 -536.5q0 -340 -152.5 -529.5t-412.5 -189.5q-256 0 -410 188.5t-154 528.5zM244 676q4 -299 130 -456t333 -157q217 0 338.5 156t125.5 457h-927zM246 756h923q-12 289 -133.5 435t-328.5 146 q-203 0 -326 -147.5t-135 -433.5zM451 1689.5q0 28.5 19 48t50 19.5t50.5 -19.5t19.5 -48t-19.5 -48t-50.5 -19.5t-50 19.5t-19 48zM823 1689.5q0 28.5 19.5 48t50.5 19.5q29 0 48.5 -19.5t19.5 -48t-19.5 -48t-48.5 -19.5q-31 0 -50.5 19.5t-19.5 48z" />
<glyph unicode="&#x4eb;" horiz-adv-x="1161" d="M137 532q0 260 120 409t325 149q209 0 325.5 -144.5t116.5 -407t-119 -412t-325.5 -149.5t-324.5 148.5t-118 406.5zM236 504q6 -215 96 -330t247.5 -115t248 114t98.5 331h-690zM238 582h688q-8 209 -98 318.5t-246 109.5q-154 0 -245 -109.5t-99 -318.5zM326 1431.5 q0 28.5 19.5 48t50 19.5t50 -19.5t19.5 -48t-19.5 -48t-50 -19.5t-50 19.5t-19.5 48zM698 1431.5q0 28.5 19.5 48t50.5 19.5q29 0 48.5 -19.5t19.5 -48t-19.5 -48t-48.5 -19.5q-31 0 -50.5 19.5t-19.5 48z" />
<glyph unicode="&#x4ec;" horiz-adv-x="1071" d="M49 125l53 65q78 -61 150 -92.5t172 -31.5q399 0 403 620h-583v84h581q-18 567 -354 567q-96 0 -172 -26.5t-164 -89.5l-53 65q172 135 391 135q455 0 455 -721q0 -350 -128 -536.5t-372 -186.5q-213 0 -379 148zM186 1689.5q0 28.5 19.5 48t50.5 19.5t50.5 -19.5 t19.5 -48t-19.5 -48t-50.5 -19.5t-50.5 19.5t-19.5 48zM559 1689.5q0 28.5 19.5 48t50.5 19.5q29 0 48 -19.5t19 -48t-19 -48t-48 -19.5q-31 0 -50.5 19.5t-19.5 48z" />
<glyph unicode="&#x4ed;" horiz-adv-x="966" d="M84 96l49 64q127 -98 277 -99q313 0 323 453h-493v78h493q-18 418 -289 418q-141 0 -276 -92l-47 61q145 111 323 111q385 0 385 -547q0 -266 -106.5 -416t-304.5 -150q-182 0 -334 119zM188 1431.5q0 28.5 19.5 48t50.5 19.5t50.5 -19.5t19.5 -48t-19.5 -48t-50.5 -19.5 t-50.5 19.5t-19.5 48zM561 1431.5q0 28.5 19.5 48t50.5 19.5q29 0 48 -19.5t19 -48t-19 -48t-48 -19.5q-31 0 -50.5 19.5t-19.5 48z" />
<glyph unicode="&#x4ee;" horiz-adv-x="1046" d="M23 1401h104l432 -938l375 938h100l-416 -1010q-90 -219 -161.5 -295t-237.5 -119l-20 76q135 37 194.5 97.5t132.5 244.5h-28zM303 1649v80h469v-80h-469z" />
<glyph unicode="&#x4ef;" horiz-adv-x="940" d="M35 1069h102l338 -997l328 997h102l-370 -1073q-63 -186 -149.5 -276.5t-264.5 -131.5l-12 74q152 41 214 109.5t121 228.5h-32zM236 1391v79h469v-79h-469z" />
<glyph unicode="&#x4f0;" horiz-adv-x="1046" d="M23 1401h104l432 -938l375 938h100l-416 -1010q-90 -219 -161.5 -295t-237.5 -119l-20 76q135 37 194.5 97.5t132.5 244.5h-28zM283 1689.5q0 28.5 19.5 48t50 19.5t50 -19.5t19.5 -48t-19.5 -48t-50 -19.5t-50 19.5t-19.5 48zM655 1689.5q0 28.5 19.5 48t50.5 19.5 q29 0 48.5 -19.5t19.5 -48t-19.5 -48t-48.5 -19.5q-31 0 -50.5 19.5t-19.5 48z" />
<glyph unicode="&#x4f1;" horiz-adv-x="940" d="M35 1069h102l338 -997l328 997h102l-370 -1073q-63 -186 -149.5 -276.5t-264.5 -131.5l-12 74q152 41 214 109.5t121 228.5h-32zM215 1431.5q0 28.5 19.5 48t50 19.5t50 -19.5t19.5 -48t-19.5 -48t-50 -19.5t-50 19.5t-19.5 48zM588 1431.5q0 28.5 19 48t50 19.5 q29 0 48.5 -19.5t19.5 -48t-19.5 -48t-48.5 -19.5q-31 0 -50 19.5t-19 48z" />
<glyph unicode="&#x4f2;" horiz-adv-x="1046" d="M23 1401h104l432 -938l375 938h100l-416 -1010q-90 -219 -161.5 -295t-237.5 -119l-20 76q135 37 194.5 97.5t132.5 244.5h-28zM367 1618l141 285l88 -45l-166 -271zM600 1610l156 295l88 -47l-180 -279z" />
<glyph unicode="&#x4f3;" horiz-adv-x="940" d="M35 1069h102l338 -997l328 997h102l-370 -1073q-63 -186 -149.5 -276.5t-264.5 -131.5l-12 74q152 41 214 109.5t121 228.5h-32zM311 1360l142 285l88 -46l-166 -270zM545 1352l155 295l88 -48l-180 -278z" />
<glyph unicode="&#x4f4;" horiz-adv-x="1204" d="M96 854v547h99v-539q0 -152 82.5 -232.5t232.5 -80.5q225 0 360 164v688h99v-1401h-99v616q-170 -156 -378 -155q-178 0 -287 105.5t-109 287.5zM276 1689.5q0 28.5 19.5 48t50.5 19.5t50.5 -19.5t19.5 -48t-19.5 -48t-50.5 -19.5t-50.5 19.5t-19.5 48zM649 1689.5 q0 28.5 19.5 48t50.5 19.5q29 0 48 -19.5t19 -48t-19 -48t-48 -19.5q-31 0 -50.5 19.5t-19.5 48z" />
<glyph unicode="&#x4f5;" horiz-adv-x="1097" d="M127 653v416h94v-403q0 -221 236 -222q96 0 183 44t140 114v467h94v-1069h-94v510q-135 -145 -344 -145q-137 0 -223 73.5t-86 214.5zM246 1431.5q0 28.5 19.5 48t50 19.5t50 -19.5t19.5 -48t-19.5 -48t-50 -19.5t-50 19.5t-19.5 48zM618 1431.5q0 28.5 19.5 48 t50.5 19.5q29 0 48.5 -19.5t19.5 -48t-19.5 -48t-48.5 -19.5q-31 0 -50.5 19.5t-19.5 48z" />
<glyph unicode="&#x4f6;" horiz-adv-x="1040" d="M236 0v1401h784l-14 -90h-674v-1225h139v-379h-74l-24 293h-137z" />
<glyph unicode="&#x4f7;" horiz-adv-x="862" d="M225 0v1069h619l-13 -84h-512v-903h134v-375h-74l-25 293h-129z" />
<glyph unicode="&#x4f8;" horiz-adv-x="1615" d="M236 0v1401h96v-545h217q233 0 361 -103.5t128 -310.5q0 -225 -131 -333.5t-358 -108.5h-313zM332 84h233q371 0 371 358q0 332 -383 332h-221v-690zM551 1689.5q0 28.5 19.5 48t50 19.5t50 -19.5t19.5 -48t-19.5 -48t-50 -19.5t-50 19.5t-19.5 48zM924 1689.5 q0 28.5 19 48t50 19.5q29 0 48.5 -19.5t19.5 -48t-19.5 -48t-48.5 -19.5q-31 0 -50 19.5t-19 48zM1284 0v1401h96v-1401h-96z" />
<glyph unicode="&#x4f9;" horiz-adv-x="1447" d="M225 0v1069h94v-367h185q416 0 416 -342q0 -180 -110 -270t-288 -90h-297zM319 80h195q305 0 305 280q0 131 -72.5 197t-240.5 66h-187v-543zM469 1431.5q0 28.5 19.5 48t50 19.5t50 -19.5t19.5 -48t-19.5 -48t-50 -19.5t-50 19.5t-19.5 48zM842 1431.5q0 28.5 19 48 t50 19.5q29 0 48.5 -19.5t19.5 -48t-19.5 -48t-48.5 -19.5q-31 0 -50 19.5t-19 48zM1128 0v1069h95v-1069h-95z" />
<glyph unicode="&#x4fa;" horiz-adv-x="1048" d="M43 735v78h201v588h784l-14 -90h-674v-498h348v-78h-348v-649h143v-242q0 -127 -64.5 -193.5t-172.5 -66.5q-111 0 -199 68l41 63q72 -47 156 -47q141 0 141 176v156h-141v735h-201z" />
<glyph unicode="&#x4fb;" horiz-adv-x="870" d="M33 -348l41 61q72 -47 155 -47q145 0 146 176v158h-139v535h-146v77h146v457h618l-12 -84h-512v-373h262v-77h-262v-453h139v-238q0 -127 -64.5 -193.5t-173.5 -66.5q-111 0 -198 68z" />
<glyph unicode="&#x4fc;" horiz-adv-x="1064" d="M25 0l430 754l-387 647h110l334 -582l330 582h106l-379 -641l392 -674h102v-242q0 -127 -64.5 -193.5t-173.5 -66.5q-111 0 -198 68l41 63q72 -47 155 -47q141 0 142 176v156h-66l-389 692l-379 -692h-106z" />
<glyph unicode="&#x4fd;" horiz-adv-x="935" d="M25 0l376 569l-327 500h110l277 -440l276 440h109l-330 -496l326 -491h116v-238q0 -127 -64.5 -193.5t-172.5 -66.5q-111 0 -199 68l41 61q72 -47 156 -47q145 0 145 176v158h-82l-325 512l-324 -512h-108z" />
<glyph unicode="&#x4fe;" horiz-adv-x="1034" d="M25 0l409 717h-315v80h309l-360 604h110l334 -586l330 586h106l-356 -604h319v-80h-317l416 -717h-111l-389 696l-379 -696h-106z" />
<glyph unicode="&#x4ff;" horiz-adv-x="919" d="M25 0l358 541h-266v75h254l-297 453h108l279 -446l278 446h107l-301 -453h260v-75h-266l356 -541h-113l-325 516l-324 -516h-108z" />
<glyph unicode="&#x2000;" horiz-adv-x="952" />
<glyph unicode="&#x2001;" horiz-adv-x="1905" />
<glyph unicode="&#x2002;" horiz-adv-x="952" />
<glyph unicode="&#x2003;" horiz-adv-x="1905" />
<glyph unicode="&#x2004;" horiz-adv-x="635" />
<glyph unicode="&#x2005;" horiz-adv-x="476" />
<glyph unicode="&#x2006;" horiz-adv-x="317" />
<glyph unicode="&#x2007;" horiz-adv-x="317" />
<glyph unicode="&#x2008;" horiz-adv-x="238" />
<glyph unicode="&#x2009;" horiz-adv-x="381" />
<glyph unicode="&#x200a;" horiz-adv-x="105" />
<glyph unicode="&#x2010;" horiz-adv-x="819" d="M145 600v82h529v-82h-529z" />
<glyph unicode="&#x2011;" horiz-adv-x="819" d="M145 600v82h529v-82h-529z" />
<glyph unicode="&#x2012;" horiz-adv-x="819" d="M145 600v82h529v-82h-529z" />
<glyph unicode="&#x2013;" horiz-adv-x="1314" d="M145 600v82h1024v-82h-1024z" />
<glyph unicode="&#x2014;" horiz-adv-x="2338" d="M145 600v82h2048v-82h-2048z" />
<glyph unicode="&#x202f;" horiz-adv-x="381" />
<glyph unicode="&#x205f;" horiz-adv-x="476" />
<glyph unicode="&#x25fc;" horiz-adv-x="1064" d="M0 0v1065h1065v-1065h-1065z" />
<glyph unicode="&#xfb01;" horiz-adv-x="1144" d="M51 989v80h178v184q0 129 76 197t215 68q156 0 303 -76l-35 -72q-139 66 -264 66q-102 0 -151 -43t-49 -150v-174h596v-1069h-95v989h-501v-989h-95v989h-178z" />
<glyph unicode="&#xfb02;" horiz-adv-x="1187" d="M51 989v80h178v184q0 125 79 195t227 70q135 0 292 -52v2l95 13v-1309q0 -111 94 -111q35 1 74 15l26 -72q-61 -27 -115 -27q-174 0 -174 197v1215q-150 47 -286 47q-111 0 -164 -44t-53 -143v-180h288l-12 -80h-276v-989h-95v989h-178z" />
</font>
</defs>
</svg>
